<svg id="Layer_1" data-name="Layer 1" xmlns="http://www.w3.org/2000/svg" viewBox="0 0 127.8 127.42"><defs><style>.cls-1{fill:#ccc;}</style></defs><title>Untitled-1</title><path class="cls-1" d="M427.18,265.41a.26.26,0,0,1-.2-.12.26.26,0,0,1,0-.27l20.59-36.15a.27.27,0,0,1,.28-.13.26.26,0,0,1,.2.24l2.46,34.92a.26.26,0,0,1-.06.19.26.26,0,0,1-.18.09l-23.06,1.24Zm20.42-35.54-19.93,35,22.31-1.2Z" transform="translate(-416.26 -217.08)"/><path class="cls-1" d="M450.23,264.18h-.07a.26.26,0,0,1-.17-.23L447.53,229a.26.26,0,0,1,.44-.2l18.7,18.42a.26.26,0,0,1,0,.37l-16.24,16.5A.26.26,0,0,1,450.23,264.18Zm-2.13-34.51,2.37,33.65,15.65-15.9Z" transform="translate(-416.26 -217.08)"/><path class="cls-1" d="M467.47,278.39a.27.27,0,0,1-.15-.06l-17.24-14.21a.26.26,0,0,1-.09-.19.26.26,0,0,1,.07-.2l16.24-16.5a.26.26,0,0,1,.45.17l1,30.71a.26.26,0,0,1-.28.27ZM450.64,263.9l16.57,13.66-1-29.52Z" transform="translate(-416.26 -217.08)"/><path class="cls-1" d="M461,284.49h0a.26.26,0,0,1-.19-.13L450,264a.26.26,0,0,1,.4-.33l17.24,14.21a.27.27,0,0,1,.1.19.26.26,0,0,1-.08.2l-6.42,6.1A.26.26,0,0,1,461,284.49ZM451.11,265l10,18.85,6-5.67Z" transform="translate(-416.26 -217.08)"/><path class="cls-1" d="M521.09,256.87a.26.26,0,0,1-.17-.09l-13.47-15.3a.25.25,0,0,1-.06-.21.26.26,0,0,1,.12-.18l13.44-8.55a.26.26,0,0,1,.4.22l0,23.85a.26.26,0,0,1-.17.24ZM508,241.36l12.81,14.55,0-22.68Z" transform="translate(-416.26 -217.08)"/><path class="cls-1" d="M485.61,249h0a.27.27,0,0,1-.18-.15l-6.75-16.08a.26.26,0,0,1,.06-.29.25.25,0,0,1,.29,0l16.83,7.93a.25.25,0,0,1,.15.2.26.26,0,0,1-.09.23L485.8,249A.26.26,0,0,1,485.61,249Zm-6.23-15.82,6.35,15.14,9.48-7.67Z" transform="translate(-416.26 -217.08)"/><path class="cls-1" d="M510,344.15a.26.26,0,0,1-.17-.08l-2.9-3.07a.26.26,0,0,1-.06-.27.25.25,0,0,1,.21-.17l8.38-1.08a.26.26,0,0,1,.29.22c.36,2.11.64,3.41.64,3.42a.25.25,0,0,1,0,.21.27.27,0,0,1-.18.11l-6.13.71ZM507.65,341l2.46,2.61,5.71-.67c-.1-.47-.3-1.49-.54-2.92Z" transform="translate(-416.26 -217.08)"/><path class="cls-1" d="M447.77,229.26h0l-3.76-1a.26.26,0,0,1-.11-.45,19.38,19.38,0,0,1,2.45-1.85.26.26,0,0,1,.21,0,.27.27,0,0,1,.16.14l1.35,2.82a.26.26,0,0,1-.26.37Zm-3.19-1.38,2.74.72-1-2A18.79,18.79,0,0,0,444.58,227.88Z" transform="translate(-416.26 -217.08)"/><path class="cls-1" d="M521.09,256.87a.26.26,0,0,1-.24-.26l0-23.85a.26.26,0,0,1,.17-.25.26.26,0,0,1,.29.07l16.65,19a.26.26,0,0,1,.06.11,10.38,10.38,0,0,1,.2,1.14,10.24,10.24,0,0,1,0,2.16,7.21,7.21,0,0,1,1.41,1.32.26.26,0,0,1-.2.43l-18.31.14Zm.25-23.41,0,22.89,17.47-.13a6.53,6.53,0,0,0-1.05-.88.27.27,0,0,1-.12-.25,9.82,9.82,0,0,0,0-2.2c0-.33-.1-.66-.18-1Z" transform="translate(-416.26 -217.08)"/><path class="cls-1" d="M459.82,296.15h0l-7-.87a.27.27,0,0,1-.18-.11,21.18,21.18,0,0,1-2.93-6.11.26.26,0,0,1,.15-.32L461,284a.26.26,0,0,1,.36.27l-1.23,11.66a.26.26,0,0,1-.28.23ZM453,294.78l6.58.82,1.16-11-10.46,4.49A20.71,20.71,0,0,0,453,294.78Z" transform="translate(-416.26 -217.08)"/><path class="cls-1" d="M507,341.14l-.09,0a.26.26,0,0,1-.15-.23H507l-.25,0a.28.28,0,0,1,.09-.21.26.26,0,0,1,.21-.07h.07a.26.26,0,0,1,.21.2.26.26,0,0,1-.1.27l-.07.05A.27.27,0,0,1,507,341.14Z" transform="translate(-416.26 -217.08)"/><path class="cls-1" d="M466.48,247.68a.26.26,0,0,1-.16-.07l-18.7-18.42a.26.26,0,0,1,.3-.42l23.63,12a.27.27,0,0,1,.14.18.26.26,0,0,1,0,.22l-4.93,6.42a.25.25,0,0,1-.19.1ZM449.18,230l17.29,17,4.56-5.93Z" transform="translate(-416.26 -217.08)"/><path class="cls-1" d="M466.48,247.68a.26.26,0,0,1-.22-.15.26.26,0,0,1,0-.27l4.93-6.42a.26.26,0,0,1,.33-.07l14.21,7.75a.26.26,0,0,1,.12.3.26.26,0,0,1-.27.19l-19.14-1.33Zm5-6.34-4.5,5.85,17.46,1.22Z" transform="translate(-416.26 -217.08)"/><path class="cls-1" d="M471.4,241.26l-.09,0a.26.26,0,0,1-.15-.27L473,228.9a.26.26,0,0,1,.4-.18l5.63,3.72a.26.26,0,0,1,.05.39l-7.46,8.34A.26.26,0,0,1,471.4,241.26Zm2.05-11.88-1.64,10.79,6.67-7.46Z" transform="translate(-416.26 -217.08)"/><path class="cls-1" d="M485.61,249l-.1,0-14.21-7.75a.26.26,0,0,1-.07-.4l7.46-8.34a.26.26,0,0,1,.24-.08.26.26,0,0,1,.2.16l6.75,16.08a.26.26,0,0,1-.26.36Zm-13.77-8.08,13.26,7.23-6.3-15Z" transform="translate(-416.26 -217.08)"/><path class="cls-1" d="M465.37,303.79h0c-.41-.09-.82-.21-1.22-.33a.26.26,0,0,1-.15-.12L459.61,296a.26.26,0,0,1,.31-.38l8.43,2.74a.26.26,0,0,1,.14.38l-2.88,4.89A.26.26,0,0,1,465.37,303.79Zm-1-.8.9.24,2.62-4.45-7.46-2.43Z" transform="translate(-416.26 -217.08)"/><path class="cls-1" d="M540.62,264.32l-.07,0L521,256.85a.26.26,0,0,1,.09-.51l18.31-.14a.26.26,0,0,1,.2.09,7.1,7.1,0,0,1,1.51,5.83.26.26,0,0,1,0,.18l-.29,1.79a.26.26,0,0,1-.28.22Zm-18.12-7.46,17.93,6.84.22-1.36a.27.27,0,0,1-.05-.18,6.6,6.6,0,0,0-1.3-5.43Z" transform="translate(-416.26 -217.08)"/><path class="cls-1" d="M542.08,265.77a.25.25,0,0,1-.16-.07l-1.47-1.45a.26.26,0,0,1-.07-.23l.29-1.79a.26.26,0,0,1,.41-.17,7.1,7.1,0,0,1,1.16,1.05.25.25,0,0,1,.07.17l.06,2.23a.26.26,0,0,1-.16.25A.25.25,0,0,1,542.08,265.77Zm-1.17-1.8.91.9,0-1.48a7,7,0,0,0-.67-.64Z" transform="translate(-416.26 -217.08)"/><path class="cls-1" d="M425.17,284.31a.26.26,0,0,1-.18-.1l-8.48-10.61a.27.27,0,0,1-.06-.13l0-.17c0-.09,0-.19,0-.29a20,20,0,0,1,.21-6,.26.26,0,0,1,.21-.21l10.34-1.88a.27.27,0,0,1,.23.06.26.26,0,0,1,.08.22l-2,18.89a.26.26,0,0,1-.19.22Zm-8.21-11,8,10.06,1.91-17.91-9.82,1.79a19.43,19.43,0,0,0-.18,5.69c0,.09,0,.18,0,.27Z" transform="translate(-416.26 -217.08)"/><path class="cls-1" d="M507,344.5a.26.26,0,0,1-.16-.07.25.25,0,0,1-.08-.2c0-1.1,0-2.2,0-3.36a.26.26,0,0,1,.11-.21l.07-.05a.26.26,0,0,1,.39.1L508.8,344a.26.26,0,0,1,0,.24.27.27,0,0,1-.2.13l-1.57.18Zm.32-2.62c0,.7,0,1.39,0,2.07l.91-.11Z" transform="translate(-416.26 -217.08)"/><path class="cls-1" d="M508.55,344.32a.26.26,0,0,1-.22-.15l-1.46-3.24a.26.26,0,0,1,.43-.29l2.9,3.07a.27.27,0,0,1,.06.27.26.26,0,0,1-.22.17l-1.44.17Zm-.56-2.2.75,1.65.73-.09Z" transform="translate(-416.26 -217.08)"/><path class="cls-1" d="M542.08,265.77l-.11,0a.27.27,0,0,1-.13-.22l-.06-2.23a.26.26,0,0,1,.45-.18,7,7,0,0,1,1.14,1.71.26.26,0,0,1-.11.34l-1,.58A.26.26,0,0,1,542.08,265.77Zm.24-1.72,0,1,.44-.25A6.23,6.23,0,0,0,542.32,264.05Z" transform="translate(-416.26 -217.08)"/><path class="cls-1" d="M471.4,241.26l-.1,0-23.63-12a.26.26,0,0,1,0-.48l18.15-5.69a.27.27,0,0,1,.2,0,.26.26,0,0,1,.13.15l5.48,17.69a.26.26,0,0,1-.27.34Zm-22.92-12.2L471,240.49l-5.22-16.85Z" transform="translate(-416.26 -217.08)"/><path class="cls-1" d="M471.4,241.26a.26.26,0,0,1-.23-.18l-5.48-17.69a.26.26,0,0,1,.1-.29.26.26,0,0,1,.31,0l7.31,5.63a.26.26,0,0,1,.1.25L471.68,241a.26.26,0,0,1-.24.22Zm-5-17.24,4.9,15.82L473,229.05Z" transform="translate(-416.26 -217.08)"/><path class="cls-1" d="M459.82,296.15a.26.26,0,0,1-.24-.29l1.23-11.66A.26.26,0,0,1,461,284a.27.27,0,0,1,.26,0l11.1,8.92a.26.26,0,0,1,.09.26.26.26,0,0,1-.2.19l-12.33,2.74Zm1.46-11.42-1.14,10.83L471.58,293Z" transform="translate(-416.26 -217.08)"/><path class="cls-1" d="M468.25,298.9h-.06l-8.43-2.75a.26.26,0,0,1-.18-.26.26.26,0,0,1,.21-.24l12.33-2.74a.26.26,0,0,1,.27.11.26.26,0,0,1,0,.3l-3.9,5.49A.26.26,0,0,1,468.25,298.9Zm-7.42-3,7.34,2.39,3.4-4.78Z" transform="translate(-416.26 -217.08)"/><path class="cls-1" d="M472.15,293.42a.25.25,0,0,1-.14-.06l-11.1-8.92a.26.26,0,0,1-.1-.19.26.26,0,0,1,.08-.2l6.43-6.11a.26.26,0,0,1,.24-.06.26.26,0,0,1,.18.17l4.68,15a.26.26,0,0,1-.1.3A.26.26,0,0,1,472.15,293.42Zm-10.68-9.2,10.2,8.2-4.3-13.81Z" transform="translate(-416.26 -217.08)"/><path class="cls-1" d="M472.15,293.42a.26.26,0,0,1-.23-.18l-4.68-15a.26.26,0,0,1,.07-.27.26.26,0,0,1,.28,0l28.2,12.28a.26.26,0,0,1-.07.5l-23.53,2.75Zm-4.24-14.82,4.44,14.28,22.35-2.62Z" transform="translate(-416.26 -217.08)"/><path class="cls-1" d="M427.18,265.41l-.09,0-8.3-3.85a.26.26,0,0,1-.14-.15.25.25,0,0,1,0-.21,20.08,20.08,0,0,1,1.12-1.83,20.09,20.09,0,0,1,8.32-15.42,20.07,20.07,0,0,1,4.73-8.44l.08-.06,14.75-6.66a.26.26,0,0,1,.3.06.26.26,0,0,1,0,.3l-20.59,36.15A.26.26,0,0,1,427.18,265.41Zm-7.91-4.23,7.82,3.63,20.08-35.25-14,6.31a19.53,19.53,0,0,0-4.6,8.27.25.25,0,0,1-.1.15,19.56,19.56,0,0,0-8.18,15.14.24.24,0,0,1,0,.14C419.92,260.08,419.59,260.62,419.27,261.19Z" transform="translate(-416.26 -217.08)"/><path class="cls-1" d="M416.84,267.3a.26.26,0,0,1-.16-.08.26.26,0,0,1-.07-.23,19.9,19.9,0,0,1,2.07-5.81.26.26,0,0,1,.34-.11l8.3,3.85a.26.26,0,0,1-.06.49l-10.34,1.89Zm2.18-5.65a19.41,19.41,0,0,0-1.83,5.07l9.15-1.67Z" transform="translate(-416.26 -217.08)"/><path class="cls-1" d="M516.43,312.73a.26.26,0,0,1-.19-.11l-16.05-22.13a.26.26,0,0,1,.17-.41l7.49-1.2a.26.26,0,0,1,.29.17l8.57,23.33a.26.26,0,0,1-.12.32A.25.25,0,0,1,516.43,312.73Zm-15.57-22.2,14.7,20.27-7.84-21.36Z" transform="translate(-416.26 -217.08)"/><path class="cls-1" d="M516.43,312.73a.26.26,0,0,1-.22-.17l-8.57-23.33a.26.26,0,0,1,.32-.34l8.07,2.46a.26.26,0,0,1,.18.24l.49,20.87a.26.26,0,0,1-.21.26Zm-8.12-23.19,7.84,21.36-.45-19.11Z" transform="translate(-416.26 -217.08)"/><path class="cls-1" d="M473.24,229.2a.25.25,0,0,1-.14-.05l-7.31-5.63a.26.26,0,0,1,0-.43l9.67-5.82.1,0,.13,0,.3,0a11.88,11.88,0,0,1,5,.5.26.26,0,0,1,.13.4l-7.7,11a.26.26,0,0,1-.17.11Zm-6.83-5.87,6.79,5.23,7.34-10.51a11.34,11.34,0,0,0-4.48-.37l-.27,0h-.08Z" transform="translate(-416.26 -217.08)"/><path class="cls-1" d="M468.46,304.28h0a21.12,21.12,0,0,1-3.13-.49.26.26,0,0,1-.18-.15.26.26,0,0,1,0-.24l2.88-4.89a.26.26,0,0,1,.2-.13.26.26,0,0,1,.22.08l4.84,5.24a.26.26,0,0,1-.15.43l-.12,0-.34,0A21.57,21.57,0,0,1,468.46,304.28Zm-2.67-.92a20.89,20.89,0,0,0,6.78.33l-4.26-4.61Z" transform="translate(-416.26 -217.08)"/><path class="cls-1" d="M473.09,304.14a.27.27,0,0,1-.17-.08l-4.84-5.24a.26.26,0,0,1,0-.33L472,293a.26.26,0,0,1,.22-.11.23.23,0,0,1,.21.12l5.94,9.39a.26.26,0,0,1,0,.22.26.26,0,0,1-.15.16,21.31,21.31,0,0,1-5.07,1.35Zm-4.48-5.52,4.6,5a21,21,0,0,0,4.52-1.18l-5.57-8.8Z" transform="translate(-416.26 -217.08)"/><path class="cls-1" d="M494,304.78h-.07a13.46,13.46,0,0,1-7.75-7.59,21.4,21.4,0,0,1-8,5.61.27.27,0,0,1-.32-.1l-5.94-9.39a.26.26,0,0,1,.19-.4l23.53-2.75a.25.25,0,0,1,.21.08.26.26,0,0,1,.08.21l-1.69,14.12a.26.26,0,0,1-.12.19A.25.25,0,0,1,494,304.78Zm-7.71-8.37h0a.27.27,0,0,1,.2.17,12.92,12.92,0,0,0,7.29,7.57l1.61-13.46-22.78,2.67,5.6,8.85a20.88,20.88,0,0,0,7.84-5.71A.26.26,0,0,1,486.27,296.42Z" transform="translate(-416.26 -217.08)"/><path class="cls-1" d="M507.09,341.08H507a.27.27,0,0,1-.22-.26.31.31,0,0,1,.17-.27.25.25,0,0,1,.28,0l.07.08a.26.26,0,0,1-.21.44Z" transform="translate(-416.26 -217.08)"/><path class="cls-1" d="M496.15,306.9a.27.27,0,0,1-.21-.15,13.68,13.68,0,0,1-.65-1.54,12.62,12.62,0,0,1-1.37-.44.26.26,0,0,1-.17-.28l1.69-14.12a.26.26,0,0,1,.26-.23l4.7-.06a.28.28,0,0,1,.21.1.26.26,0,0,1,0,.23l-4.23,16.3a.26.26,0,0,1-.23.19Zm-1.86-2.54a13,13,0,0,0,1.26.38.26.26,0,0,1,.19.17c.1.31.23.63.37,1l4-15.26-4.13.05Z" transform="translate(-416.26 -217.08)"/><path class="cls-1" d="M517.82,260.82h0a.26.26,0,0,1-.2-.14l-10.2-19.25a.26.26,0,0,1,.08-.34.26.26,0,0,1,.35,0l13.47,15.3a.26.26,0,0,1,0,.34l-3.27,4A.26.26,0,0,1,517.82,260.82Zm-8.91-17.67,9,16.95,2.88-3.48Z" transform="translate(-416.26 -217.08)"/><path class="cls-1" d="M524.89,313.44h0l-8.46-.71a.26.26,0,0,1-.24-.25l-.49-20.87a.26.26,0,0,1,.48-.15L528.83,311a.26.26,0,0,1-.06.35,13.39,13.39,0,0,1-3.78,2.07Zm-8.18-1.21,8.17.68a12.82,12.82,0,0,0,3.39-1.83l-12-18.57Z" transform="translate(-416.26 -217.08)"/><path class="cls-1" d="M528.59,311.41h0a.28.28,0,0,1-.18-.12l-12.65-19.55a.26.26,0,0,1,.1-.38l8.75-4.27a.27.27,0,0,1,.23,0,.26.26,0,0,1,.14.18l4.82,23a.26.26,0,0,1-.08.24c-.29.28-.61.55-.94.8A.27.27,0,0,1,528.59,311.41Zm-12.25-19.7,12.34,19.06c.2-.16.39-.33.57-.5l-4.73-22.55Z" transform="translate(-416.26 -217.08)"/><path class="cls-1" d="M529.5,310.62h-.06a.26.26,0,0,1-.18-.2l-4.83-23a.26.26,0,0,1,.06-.22.26.26,0,0,1,.21-.09l14.86.86a.24.24,0,0,1,.2.12.26.26,0,0,1,0,.23L535.11,301a.26.26,0,0,1-.11.14c-.25.14-.5.28-.76.41l-.31.14a13.41,13.41,0,0,1-4.22,8.82A.26.26,0,0,1,529.5,310.62Zm-4.48-23,4.66,22.23a12.9,12.9,0,0,0,3.73-8.3.26.26,0,0,1,.15-.22l.08,0,.35-.17.65-.35,4.54-12.34Z" transform="translate(-416.26 -217.08)"/><path class="cls-1" d="M534.85,301.22a.25.25,0,0,1-.15-.06.27.27,0,0,1-.08-.29l4.7-12.76a.26.26,0,0,1,.25-.17.26.26,0,0,1,.24.19l1.43,5a.27.27,0,0,1,0,.15,13.39,13.39,0,0,1-6.25,7.94A.25.25,0,0,1,534.85,301.22ZM539.53,289l-4.16,11.31a12.87,12.87,0,0,0,5.36-7.17Z" transform="translate(-416.26 -217.08)"/><path class="cls-1" d="M467.47,278.39h-.05a.26.26,0,0,1-.19-.24l-1-30.71a.26.26,0,0,1,.13-.23.26.26,0,0,1,.27,0L482.55,257a.26.26,0,0,1,.07.37L467.7,278.28A.26.26,0,0,1,467.47,278.39Zm-.7-30.49,1,29.45,14.31-20Z" transform="translate(-416.26 -217.08)"/><path class="cls-1" d="M482.39,257.5a.27.27,0,0,1-.12,0l-15.91-9.82a.26.26,0,0,1,.16-.48l19.14,1.33a.22.22,0,0,1,.2.12.27.27,0,0,1,0,.23l-3.23,8.49a.27.27,0,0,1-.16.15Zm-14.85-9.75,14.74,9.1,3-7.86Z" transform="translate(-416.26 -217.08)"/><path class="cls-1" d="M467.47,278.39a.26.26,0,0,1-.18-.1.26.26,0,0,1,0-.31l14.92-20.89a.26.26,0,0,1,.31-.09l17.41,7.37a.26.26,0,0,1,0,.48l-32.33,13.51A.25.25,0,0,1,467.47,278.39Zm15-20.83-14.26,20,30.91-12.92Z" transform="translate(-416.26 -217.08)"/><path class="cls-1" d="M495.68,290.66l-.08,0-28.2-12.28a.26.26,0,0,1,0-.48l32.33-13.52a.26.26,0,0,1,.36.28L496,290.44a.26.26,0,0,1-.13.19A.25.25,0,0,1,495.68,290.66Zm-27.52-12.53L495.49,290l4-25Z" transform="translate(-416.26 -217.08)"/><path class="cls-1" d="M499.8,264.87l-.08,0-17.41-7.37a.26.26,0,0,1-.14-.33l3.23-8.49a.26.26,0,0,1,.2-.16.25.25,0,0,1,.24.08L500,264.44a.26.26,0,0,1,0,.33A.26.26,0,0,1,499.8,264.87Zm-17.06-7.78,16.1,6.82-13.12-14.67Z" transform="translate(-416.26 -217.08)"/><path class="cls-1" d="M499.8,264.87a.27.27,0,0,1-.17-.09l-14.18-15.86a.27.27,0,0,1-.07-.2.26.26,0,0,1,.1-.18l10.08-8.15a.26.26,0,0,1,.25,0,.27.27,0,0,1,.17.2l4.11,24a.26.26,0,0,1-.15.28A.26.26,0,0,1,499.8,264.87ZM486,248.78l13.4,15-3.88-22.68Z" transform="translate(-416.26 -217.08)"/><path class="cls-1" d="M495.68,290.66a.26.26,0,0,1-.18-.09.26.26,0,0,1-.06-.21l4.12-25.79a.26.26,0,0,1,.27-.22h0a.26.26,0,0,1,.24.26l.58,25.73a.26.26,0,0,1-.26.27l-4.7.06Zm3.95-23.17L496,290.14l4.13-.06Z" transform="translate(-416.26 -217.08)"/><path class="cls-1" d="M500.37,290.6a.26.26,0,0,1-.24-.25l-.58-25.73a.26.26,0,0,1,.51-.09l8.06,24.53a.27.27,0,0,1,0,.22.25.25,0,0,1-.18.12l-7.48,1.2Zm-.25-24.24.53,23.67,6.89-1.1Z" transform="translate(-416.26 -217.08)"/><path class="cls-1" d="M499.8,264.87a.26.26,0,0,1-.24-.22l-4.11-24a.26.26,0,0,1,.27-.3l11.93.71a.25.25,0,0,1,.2.11.27.27,0,0,1,0,.23l-7.82,23.3A.25.25,0,0,1,499.8,264.87Zm-3.77-24,3.88,22.67,7.38-22Z" transform="translate(-416.26 -217.08)"/><path class="cls-1" d="M499.8,264.87a.26.26,0,0,1-.23-.34l7.82-23.3a.26.26,0,0,1,.23-.18.26.26,0,0,1,.25.14l10.2,19.25a.25.25,0,0,1,0,.23.26.26,0,0,1-.18.15l-18,4.05Zm7.89-22.9-7.48,22.29,17.23-3.88Z" transform="translate(-416.26 -217.08)"/><path class="cls-1" d="M447.77,229.26h0a.26.26,0,0,1-.2-.15l-1.35-2.82a.26.26,0,0,1,.1-.33,19.23,19.23,0,0,1,6-2.53.26.26,0,0,1,.25.42l-4.6,5.32A.26.26,0,0,1,447.77,229.26Zm-1-3,1.07,2.25,3.8-4.39A18.7,18.7,0,0,0,446.78,226.28Z" transform="translate(-416.26 -217.08)"/><path class="cls-1" d="M447.77,229.26a.26.26,0,0,1-.18-.43l4.6-5.32a.26.26,0,0,1,.14-.08,19.74,19.74,0,0,1,2.13-.37c.38,0,.76-.07,1.14-.1a19.36,19.36,0,0,1,9.32-3.71c.48-.05,1-.09,1.42-.11a.25.25,0,0,1,.2.08.26.26,0,0,1,.07.21l-.42,3.91a.26.26,0,0,1-.18.22l-18.15,5.69Zm4.77-5.34-3.95,4.56,17.11-5.37.37-3.43c-.35,0-.72.05-1.08.1a18.84,18.84,0,0,0-9.13,3.65.26.26,0,0,1-.14.05c-.4,0-.79.05-1.19.1A19.58,19.58,0,0,0,452.54,223.92Z" transform="translate(-416.26 -217.08)"/><path class="cls-1" d="M465.93,223.57a.26.26,0,0,1-.12,0,.26.26,0,0,1-.12-.25l.42-3.91a.26.26,0,0,1,.25-.23,19.45,19.45,0,0,1,4,.24,11.9,11.9,0,0,1,5.22-2.16.26.26,0,0,1,.17.48l-9.67,5.82A.25.25,0,0,1,465.93,223.57Zm.67-3.91-.34,3.16,7.83-4.71a11.32,11.32,0,0,0-3.51,1.77.26.26,0,0,1-.2,0A18.87,18.87,0,0,0,466.6,219.65Z" transform="translate(-416.26 -217.08)"/><path class="cls-1" d="M433.78,290.52h0a20,20,0,0,1-9.82-4.07.26.26,0,0,1-.07-.32l1.09-2.19a.26.26,0,0,1,.34-.12l12.85,5.8a.26.26,0,0,1,.15.28.26.26,0,0,1-.23.22l-4.24.41Zm-9.34-4.36A19.41,19.41,0,0,0,433.8,290l3.24-.31-11.72-5.29Z" transform="translate(-416.26 -217.08)"/><path class="cls-1" d="M434.59,290.6h0l-.82-.08a.26.26,0,0,1,0-.52l4.24-.41a.26.26,0,0,1,.23.1.26.26,0,0,1,0,.25l-.18.49a.26.26,0,0,1-.22.17A20.11,20.11,0,0,1,434.59,290.6Z" transform="translate(-416.26 -217.08)"/><path class="cls-1" d="M438,290.11l-.09,0-12.85-5.8a.26.26,0,0,1-.15-.27l2-18.89a.26.26,0,0,1,.5-.08l10.84,24.69a.26.26,0,0,1-.26.36Zm-12.55-6.22,12.06,5.44-10.17-23.17Z" transform="translate(-416.26 -217.08)"/><path class="cls-1" d="M438,290.11a.26.26,0,0,1-.22-.16L427,265.26a.26.26,0,0,1,.23-.37l23.05-1.24a.26.26,0,0,1,.25.37L438.27,290a.26.26,0,0,1-.24.15Zm-10.43-24.71L438,289.21l11.79-25Z" transform="translate(-416.26 -217.08)"/><path class="cls-1" d="M437.89,290.59a.3.3,0,0,1-.21-.1.27.27,0,0,1-.07-.25l.18-.49a.26.26,0,0,1,.23-.17.26.26,0,0,1,.25.15l.22.45a.26.26,0,0,1-.21.37l-.34,0Z" transform="translate(-416.26 -217.08)"/><path class="cls-1" d="M450,289.24l-.09,0a.26.26,0,0,1-.14-.16c-.19-.64-.35-1.3-.48-2a.26.26,0,0,1,.19-.31L461,284a.26.26,0,0,1,.31.17.26.26,0,0,1-.14.32l-11.08,4.75Zm-.15-2c.1.47.21.93.34,1.39l7.93-3.4Z" transform="translate(-416.26 -217.08)"/><path class="cls-1" d="M438.24,290.56a.26.26,0,0,1-.21-.15l-.22-.45a.26.26,0,0,1,.17-.37l7.68-1.87a.26.26,0,0,1,.31.16.26.26,0,0,1-.12.32,19.85,19.85,0,0,1-7.3,2.33l-.26,0Zm5-1.7L438.42,290h.07A19.37,19.37,0,0,0,443.21,288.85Z" transform="translate(-416.26 -217.08)"/><path class="cls-1" d="M438,290.11a.26.26,0,0,1-.21-.37L450,263.81a.26.26,0,0,1,.47,0l10.81,20.31a.26.26,0,0,1-.17.38l-11.55,2.81a.25.25,0,0,1-.2,0,.26.26,0,0,1-.12-.17c-.08-.4-.14-.76-.19-1.11a20,20,0,0,1-3.23,2.21l-.06,0-7.68,1.87Zm12.25-25.61-11.76,25,7.11-1.73a19.48,19.48,0,0,0,3.47-2.45.26.26,0,0,1,.43.17c0,.4.11.82.2,1.28l11-2.67Z" transform="translate(-416.26 -217.08)"/><path class="cls-1" d="M478.86,232.92a.26.26,0,0,1-.12,0l-5.63-3.72A.26.26,0,0,1,473,229a.27.27,0,0,1,.06-.21l9-10.53a.26.26,0,0,1,.31-.07l.08,0h0a11.87,11.87,0,0,1,2.64-.88.26.26,0,0,1,.25.09.26.26,0,0,1,0,.27l-6.26,15.07a.26.26,0,0,1-.17.15Zm-5.22-4,5.12,3.39L484.71,218a11.29,11.29,0,0,0-2.14.78.27.27,0,0,1-.23,0h0Z" transform="translate(-416.26 -217.08)"/><path class="cls-1" d="M473.24,229.2a.26.26,0,0,1-.19-.41l7.7-11a.25.25,0,0,1,.29-.1,11.78,11.78,0,0,1,1.3.52.26.26,0,0,1,.09.41l-9,10.52A.26.26,0,0,1,473.24,229.2Zm7.83-11-4.49,6.43,5.24-6.14C481.56,218.4,481.31,218.31,481.06,218.22Z" transform="translate(-416.26 -217.08)"/><path class="cls-1" d="M526.54,235.28l-.08,0L521,233a.26.26,0,0,1-.13-.36l1-2a.26.26,0,0,1,.32-.12,8.19,8.19,0,0,1,4.58,4.37.26.26,0,0,1-.26.37Zm-5.1-2.65,4.58,1.89a7.69,7.69,0,0,0-3.78-3.4Z" transform="translate(-416.26 -217.08)"/><path class="cls-1" d="M537.7,252a.26.26,0,0,1-.17-.09l-16.65-19a.26.26,0,0,1,0-.32.26.26,0,0,1,.31-.09l5.49,2.26a.26.26,0,0,1,.14.14,8,8,0,0,1,.43,1.29,10.25,10.25,0,0,1,5.78,8.1c0,.26.05.52.06.78a10.33,10.33,0,0,1,4.9,6.6.26.26,0,0,1-.28.32ZM522,233.43l15.13,17.24a9.83,9.83,0,0,0-4.44-5.21.27.27,0,0,1-.13-.22c0-.29,0-.59-.06-.88a9.74,9.74,0,0,0-5.59-7.74.26.26,0,0,1-.14-.18,7.61,7.61,0,0,0-.39-1.22Z" transform="translate(-416.26 -217.08)"/><path class="cls-1" d="M424.08,286.5a.26.26,0,0,1-.14-.05,20.09,20.09,0,0,1-5.42-6.49.26.26,0,0,1,.37-.34l6.43,4.22a.26.26,0,0,1,.09.33l-1.09,2.19a.26.26,0,0,1-.18.14Zm-4.58-5.87a19.63,19.63,0,0,0,4.51,5.2l.84-1.7Z" transform="translate(-416.26 -217.08)"/><path class="cls-1" d="M425.17,284.31a.27.27,0,0,1-.12,0L418.62,280a.25.25,0,0,1-.09-.1,19.86,19.86,0,0,1-2.07-6.48.26.26,0,0,1,.46-.2l8.48,10.61a.26.26,0,0,1-.22.42ZM419,279.65l5,3.28-6.83-8.55A19.32,19.32,0,0,0,419,279.65Z" transform="translate(-416.26 -217.08)"/><path class="cls-1" d="M507.62,241.57a.27.27,0,0,1-.14-.05.26.26,0,0,1-.09-.28l3.16-10.43a.26.26,0,0,1,.3-.18l10.28,1.88a.26.26,0,0,1,.09.48l-13.44,8.55A.27.27,0,0,1,507.62,241.57ZM511,231.18l-2.89,9.53,12.28-7.81Z" transform="translate(-416.26 -217.08)"/><path class="cls-1" d="M510.78,231.14a.26.26,0,0,1-.12,0,.26.26,0,0,1-.12-.19l-.84-7.2a.26.26,0,0,1,.16-.27.26.26,0,0,1,.3.08l0,0a8.09,8.09,0,0,1,7.33,5,.26.26,0,0,1,0,.21.27.27,0,0,1-.15.14l-6.5,2.23Zm-.51-7.05.75,6.44,5.92-2A7.57,7.57,0,0,0,510.27,224.09Z" transform="translate(-416.26 -217.08)"/><path class="cls-1" d="M521.06,233h0l-10.28-1.88a.26.26,0,0,1,0-.52l10.57-.34h.08a7.55,7.55,0,0,1,.79.26.26.26,0,0,1,.15.15.26.26,0,0,1,0,.21l-1,2A.26.26,0,0,1,521.06,233Zm-7.81-2,7.69,1.41.82-1.54-.42-.13Z" transform="translate(-416.26 -217.08)"/><path class="cls-1" d="M510.78,231.14a.26.26,0,0,1-.06-.51l6.5-2.23a.26.26,0,0,1,.32.15,8.13,8.13,0,0,1,.49,1.58l.36-.06a8.16,8.16,0,0,1,3,.22.26.26,0,0,1-.06.51l-10.57.34Zm6.37-2.17-4.62,1.59,5-.16A7.75,7.75,0,0,0,517.15,229Z" transform="translate(-416.26 -217.08)"/><path class="cls-1" d="M478.86,232.92a.26.26,0,0,1-.19-.1.26.26,0,0,1,0-.26l6.26-15.07a.26.26,0,0,1,.19-.16c.35-.07.7-.13,1-.17a11.85,11.85,0,0,1,7.08,1.38.25.25,0,0,1,.11.07l10.61,11.29a.26.26,0,0,1,.06.27.26.26,0,0,1-.22.17l-24.85,2.58Zm6.47-15.1-6,14.54,23.88-2.48L493,219a11.32,11.32,0,0,0-6.79-1.33C485.91,217.72,485.62,217.77,485.33,217.82Z" transform="translate(-416.26 -217.08)"/><path class="cls-1" d="M495.69,240.85l-.09,0-16.83-7.93a.26.26,0,0,1-.15-.28.26.26,0,0,1,.23-.22l24.85-2.58a.26.26,0,0,1,.25.13.26.26,0,0,1,0,.29l-8,10.51A.26.26,0,0,1,495.69,240.85Zm-15.85-8,15.79,7.44,7.53-9.86Z" transform="translate(-416.26 -217.08)"/><path class="cls-1" d="M503.71,230.34a.26.26,0,0,1-.17-.08L492.93,219a.26.26,0,0,1,.1-.43,8.31,8.31,0,0,1,1.74-.4,8.2,8.2,0,0,1,5.25,1.18h0a8.11,8.11,0,0,1,4.54.79.26.26,0,0,1,.14.25L504,230.1a.26.26,0,0,1-.17.23Zm-10.12-11.42,9.92,10.56.7-9a7.56,7.56,0,0,0-4.09-.66l-.13,0a.25.25,0,0,1-.17,0,7.66,7.66,0,0,0-5-1.15A7.51,7.51,0,0,0,493.59,218.92Z" transform="translate(-416.26 -217.08)"/><path class="cls-1" d="M495.69,240.85a.26.26,0,0,1-.19-.42l8-10.51a.24.24,0,0,1,.25-.1.26.26,0,0,1,.21.17l3.91,11.22a.26.26,0,0,1,0,.24.26.26,0,0,1-.22.1l-11.93-.71Zm8-10.23-7.43,9.74,11,.66Z" transform="translate(-416.26 -217.08)"/><path class="cls-1" d="M507.62,241.57a.26.26,0,0,1-.22-.18l-3.91-11.22a.26.26,0,0,1,.28-.35l7.07.8a.27.27,0,0,1,.19.12.26.26,0,0,1,0,.22l-3.16,10.43a.26.26,0,0,1-.24.19Zm-3.5-11.18,3.51,10.08,2.84-9.36Z" transform="translate(-416.26 -217.08)"/><path class="cls-1" d="M510.78,231.14h0l-7.07-.8a.26.26,0,0,1-.23-.28l.76-9.75a.26.26,0,0,1,.13-.21.26.26,0,0,1,.24,0c.28.14.5.26.7.39a8.13,8.13,0,0,1,4.86,3,.26.26,0,0,1,.05.13l.84,7.2a.26.26,0,0,1-.28.29ZM504,229.85l6.49.73-.79-6.8a7.61,7.61,0,0,0-4.55-2.79l-.09,0-.35-.21Z" transform="translate(-416.26 -217.08)"/><path class="cls-1" d="M504.08,320.45a.26.26,0,0,1-.23-.18,45.28,45.28,0,0,0-3.54-8.42,13.54,13.54,0,0,1-4.38-5.1.26.26,0,0,1,0-.18l4.23-16.3a.26.26,0,0,1,.22-.19.27.27,0,0,1,.26.14l13.7,26.52a.26.26,0,0,1,0,.14l0,.3a.25.25,0,0,1-.18.23l-10,3Zm-7.64-13.85a13,13,0,0,0,4.22,4.85.26.26,0,0,1,.08.09,45.6,45.6,0,0,1,3.54,8.32l9.55-2.9v-.05l-13.36-25.84Z" transform="translate(-416.26 -217.08)"/><path class="cls-1" d="M507.09,341.08a.26.26,0,0,1-.17-.09l-.07-.08a.26.26,0,0,1-.07-.17,70.83,70.83,0,0,0-2.92-20.48.26.26,0,0,1,0-.2.25.25,0,0,1,.15-.13l10-3a.26.26,0,0,1,.33.27c0,.2,0,.41,0,.61l-6.94,23.1a.26.26,0,0,1-.19.18Zm-2.65-20.72a70.4,70.4,0,0,1,2.84,19l6.51-21.66c0-.05,0-.12,0-.18Z" transform="translate(-416.26 -217.08)"/><path class="cls-1" d="M514.08,317.12a.26.26,0,0,1-.21-.14l-13.71-26.52a.26.26,0,0,1,.44-.27l16.05,22.13a.26.26,0,0,1,0,.27l-.33.7a.26.26,0,0,1-.32.13c-.43-.15-.82-.31-1.2-.48-.2,1.21-.35,2.51-.46,3.86a.3.3,0,0,1,0,.08.29.29,0,0,1-.29.24ZM502.22,293.3l11.7,22.64c.12-1.2.27-2.35.45-3.43a.27.27,0,0,1,.14-.19.25.25,0,0,1,.23,0,12.79,12.79,0,0,0,1.24.53l.16-.34Z" transform="translate(-416.26 -217.08)"/><path class="cls-1" d="M507.09,341.08a.26.26,0,0,1-.23-.34l6.92-23a.26.26,0,0,1,.51.09,101.1,101.1,0,0,0,1.45,21.91.25.25,0,0,1,0,.2.26.26,0,0,1-.18.11l-8.38,1.08Zm6.58-21.2-6.2,20.63,7.71-1A105.63,105.63,0,0,1,513.67,319.89Z" transform="translate(-416.26 -217.08)"/><path class="cls-1" d="M519.44,314.15h0a13.5,13.5,0,0,1-3.41-.73.26.26,0,0,1-.15-.15.27.27,0,0,1,0-.21l.33-.7a.26.26,0,0,1,.26-.15h0l8.46.71a.26.26,0,0,1,.06.51,13.48,13.48,0,0,1-5.55.73Zm-3-1.13a12.85,12.85,0,0,0,3,.61h0a12.88,12.88,0,0,0,2.52,0,13.39,13.39,0,0,0,1.49-.26l-6.89-.58Z" transform="translate(-416.26 -217.08)"/><path class="cls-1" d="M455.64,298.53a.25.25,0,0,1-.16-.07,21.19,21.19,0,0,1-2.81-3.28.26.26,0,0,1,0-.29.3.3,0,0,1,.25-.12l7,.87a.26.26,0,0,1,.1.49l-4.18,2.37A.27.27,0,0,1,455.64,298.53Zm-2.2-3.17a20.9,20.9,0,0,0,2.26,2.59l3.32-1.89Z" transform="translate(-416.26 -217.08)"/><path class="cls-1" d="M464.16,303.47h-.05a21.46,21.46,0,0,1-8.63-5,.26.26,0,0,1-.08-.22.26.26,0,0,1,.13-.2l4.17-2.37a.26.26,0,0,1,.35.09l4.35,7.32a.26.26,0,0,1-.25.39Zm-8.07-5.15a21,21,0,0,0,7.51,4.44l-3.87-6.51Z" transform="translate(-416.26 -217.08)"/><path class="cls-1" d="M507.86,289.4h0a.26.26,0,0,1-.18-.17l-8.06-24.53a.26.26,0,0,1,.35-.32l24.76,10.57a.26.26,0,0,1,.16.2.26.26,0,0,1-.09.24l-16.7,14A.27.27,0,0,1,507.86,289.4Zm-7.61-24.32L508,288.69l16.08-13.44Z" transform="translate(-416.26 -217.08)"/><path class="cls-1" d="M524.56,275.44l-.08,0-24.76-10.57a.26.26,0,0,1,0-.49l18-4.06a.26.26,0,0,1,.29.15l6.74,14.62a.26.26,0,0,1-.26.37Zm-23.89-10.75,23.39,10-6.37-13.82Z" transform="translate(-416.26 -217.08)"/><path class="cls-1" d="M515.93,291.86h-.05l-8.08-2.46a.27.27,0,0,1-.18-.2.26.26,0,0,1,.09-.25l16.7-14a.26.26,0,0,1,.4.32l-8.62,16.42A.26.26,0,0,1,515.93,291.86ZM508.42,289l7.41,2.26,7.91-15.06Z" transform="translate(-416.26 -217.08)"/><path class="cls-1" d="M515.93,291.86a.25.25,0,0,1-.16-.08.25.25,0,0,1,0-.3l8.62-16.42a.27.27,0,0,1,.29-.13.26.26,0,0,1,.2.25l.12,12.15a.27.27,0,0,1-.15.24l-8.75,4.27A.25.25,0,0,1,515.93,291.86Zm8.39-15.64L516.55,291l7.88-3.85Z" transform="translate(-416.26 -217.08)"/><path class="cls-1" d="M524.56,275.44a.26.26,0,0,1-.22-.15l-6.74-14.62a.26.26,0,0,1,0-.28l3.27-4a.25.25,0,0,1,.27-.09.26.26,0,0,1,.19.2l3.47,18.58a.26.26,0,0,1-.18.3Zm-6.41-14.85,5.79,12.57-3-16Z" transform="translate(-416.26 -217.08)"/><path class="cls-1" d="M524.56,275.44l-.08,0a.26.26,0,0,1-.16-.19l-3.47-18.57a.26.26,0,0,1,.35-.29l19.53,7.45a.26.26,0,0,1,.17.21.26.26,0,0,1-.11.25L524.73,275.4A.26.26,0,0,1,524.56,275.44ZM521.45,257l3.31,17.72,15.32-10.61Z" transform="translate(-416.26 -217.08)"/><path class="cls-1" d="M524.68,287.6a.26.26,0,0,1-.24-.26l-.12-12.15a.26.26,0,0,1,.43-.2l15,13a.26.26,0,0,1,.07.3.26.26,0,0,1-.26.16l-14.86-.86Zm.17-11.84.12,11.33,13.86.8Z" transform="translate(-416.26 -217.08)"/><path class="cls-1" d="M539.54,288.45a.26.26,0,0,1-.15-.06l-15-13a.26.26,0,0,1-.09-.22.26.26,0,0,1,.13-.2L542,265.28a.26.26,0,0,1,.27,0,.26.26,0,0,1,.11.25l-1.6,14.34a.26.26,0,0,1-.12.19,7.16,7.16,0,0,1-1.94.86,13.5,13.5,0,0,1,1.63,2.49.26.26,0,0,1,0,.15l-.52,4.66a.26.26,0,0,1-.17.21ZM525,275.23l14.33,12.44.46-4.09a13,13,0,0,0-1.8-2.64.26.26,0,0,1-.05-.26.26.26,0,0,1,.19-.17,6.57,6.57,0,0,0,2.08-.82L541.79,266Z" transform="translate(-416.26 -217.08)"/><path class="cls-1" d="M524.56,275.44a.26.26,0,0,1-.13-.48l16.06-11.13a.26.26,0,0,1,.33,0l1.47,1.45a.26.26,0,0,1-.06.41l-17.53,9.67A.26.26,0,0,1,524.56,275.44Zm16.05-11L529,272.47l12.72-7Z" transform="translate(-416.26 -217.08)"/><path class="cls-1" d="M540.48,280.1a.26.26,0,0,1-.24-.29l1.6-14.34a.26.26,0,0,1,.17-.22l1.1-.42a.26.26,0,0,1,.33.14,7.09,7.09,0,0,1-.13,6,7.06,7.06,0,0,1,.62,2.17,7.19,7.19,0,0,1-3.29,6.88A.26.26,0,0,1,540.48,280.1Zm1.87-14.41-1.52,13.61a6.66,6.66,0,0,0,2.59-6.06,6.51,6.51,0,0,0-.62-2.11.26.26,0,0,1,0-.23,6.57,6.57,0,0,0,.27-5.47Z" transform="translate(-416.26 -217.08)"/><path class="cls-1" d="M539.54,288.45h-.07a.26.26,0,0,1-.17-.28l.52-4.66a.26.26,0,0,1,.21-.23.26.26,0,0,1,.28.14l.09.16a13.58,13.58,0,0,1,.86,2.25.26.26,0,0,1,0,.21l-1.45,2.29A.26.26,0,0,1,539.54,288.45Zm.7-4-.29,2.62.78-1.24A13,13,0,0,0,540.24,284.48Z" transform="translate(-416.26 -217.08)"/><path class="cls-1" d="M541,293.43a.26.26,0,0,1-.23-.19l-1.43-5a.25.25,0,0,1,0-.21l1.45-2.29a.27.27,0,0,1,.26-.12.26.26,0,0,1,.21.19,13.43,13.43,0,0,1,0,7.42.26.26,0,0,1-.25.19Zm-1.13-5.2,1.13,3.93a12.89,12.89,0,0,0-.07-5.62Z" transform="translate(-416.26 -217.08)"/><path class="cls-1" d="M542.08,265.77a.26.26,0,0,1-.22-.15.26.26,0,0,1,.11-.34l1-.58a.26.26,0,0,1,.21,0,.27.27,0,0,1,.16.14l0,.11a.34.34,0,0,1,0,.24.29.29,0,0,1-.14.17l-1.1.42Z" transform="translate(-416.26 -217.08)"/><path class="cls-1" d="M441.39,230.65a.26.26,0,0,1-.06-.51l.19-.06.24-.08a19.73,19.73,0,0,1,2.11-2.18.26.26,0,0,1,.24-.06l3.76,1a.26.26,0,0,1,0,.51l-6.39,1.39Zm2.72-2.35a19.08,19.08,0,0,0-1.56,1.57l4.13-.9Z" transform="translate(-416.26 -217.08)"/><path class="cls-1" d="M433,235.92a.26.26,0,0,1-.19-.11.26.26,0,0,1,0-.33,20,20,0,0,1,8.48-5.35l6.41-1.39a.26.26,0,0,1,.3.17.26.26,0,0,1-.14.32l-14.75,6.66A.27.27,0,0,1,433,235.92Zm12.42-6.15-4,.86a19.39,19.39,0,0,0-7.2,4.19Z" transform="translate(-416.26 -217.08)"/><circle class="cls-1" cx="466.27" cy="247.11" r="1.83" transform="translate(-233.98 474.79) rotate(-85.36)"/><path class="cls-1" d="M466.08,249.45a2.35,2.35,0,1,1,2.53-2.15A2.35,2.35,0,0,1,466.08,249.45Zm.3-3.64a1.3,1.3,0,1,0,1.2,1.41A1.31,1.31,0,0,0,466.38,245.81Z" transform="translate(-416.26 -217.08)"/><circle class="cls-1" cx="478.89" cy="232.66" r="1.83" transform="translate(-208.04 474.05) rotate(-85.36)"/><path class="cls-1" d="M478.7,235a2.35,2.35,0,1,1,2.53-2.15A2.35,2.35,0,0,1,478.7,235Zm.3-3.64a1.31,1.31,0,1,0,1.2,1.41A1.31,1.31,0,0,0,479,231.36Z" transform="translate(-416.26 -217.08)"/><circle class="cls-1" cx="473.45" cy="229.21" r="1.17" transform="translate(-209.57 465.48) rotate(-85.36)"/><path class="cls-1" d="M473.31,230.9a1.7,1.7,0,1,1,1.83-1.55A1.7,1.7,0,0,1,473.31,230.9Zm.19-2.34a.65.65,0,1,0,.6.7A.65.65,0,0,0,473.5,228.56Z" transform="translate(-416.26 -217.08)"/><circle class="cls-1" cx="510.77" cy="230.8" r="1.44" transform="translate(-176.88 504.12) rotate(-85.36)"/><path class="cls-1" d="M510.61,232.75a2,2,0,1,1,2.11-1.79A2,2,0,0,1,510.61,232.75Zm.23-2.86a.91.91,0,1,0,.84,1A.91.91,0,0,0,510.84,229.89Z" transform="translate(-416.26 -217.08)"/><circle class="cls-1" cx="503.73" cy="230.08" r="1.83" transform="translate(-182.57 496.48) rotate(-85.36)"/><path class="cls-1" d="M503.54,232.42a2.35,2.35,0,1,1,2.53-2.15A2.35,2.35,0,0,1,503.54,232.42Zm.29-3.64a1.31,1.31,0,1,0,1.2,1.41A1.31,1.31,0,0,0,503.84,228.78Z" transform="translate(-416.26 -217.08)"/><circle class="cls-1" cx="495.71" cy="240.59" r="1.83" transform="translate(-200.48 498.11) rotate(-85.36)"/><path class="cls-1" d="M495.52,242.94a2.35,2.35,0,1,1,2.53-2.15A2.35,2.35,0,0,1,495.52,242.94Zm.3-3.64A1.3,1.3,0,1,0,497,240.7,1.31,1.31,0,0,0,495.82,239.29Z" transform="translate(-416.26 -217.08)"/><circle class="cls-1" cx="499.81" cy="264.11" r="1.83" transform="translate(-220.16 523.8) rotate(-85.36)"/><path class="cls-1" d="M499.62,266.45a2.35,2.35,0,1,1,2.53-2.15A2.35,2.35,0,0,1,499.62,266.45Zm.29-3.64a1.31,1.31,0,1,0,1.2,1.41A1.31,1.31,0,0,0,499.91,262.81Z" transform="translate(-416.26 -217.08)"/><circle class="cls-1" cx="524.32" cy="275" r="1.83" transform="translate(-208.41 558.29) rotate(-85.36)"/><path class="cls-1" d="M524.13,277.34a2.35,2.35,0,1,1,2.53-2.15A2.35,2.35,0,0,1,524.13,277.34Zm.3-3.64a1.31,1.31,0,1,0,1.2,1.41A1.31,1.31,0,0,0,524.43,273.7Z" transform="translate(-416.26 -217.08)"/><circle class="cls-1" cx="521.12" cy="256.93" r="1.83" transform="translate(-193.35 538.49) rotate(-85.36)"/><path class="cls-1" d="M520.93,259.27a2.35,2.35,0,1,1,2.53-2.15A2.35,2.35,0,0,1,520.93,259.27Zm.3-3.64a1.31,1.31,0,1,0,1.19,1.41A1.31,1.31,0,0,0,521.23,255.63Z" transform="translate(-416.26 -217.08)"/><circle class="cls-1" cx="482.41" cy="257.24" r="1.83" transform="translate(-229.25 500.18) rotate(-85.36)"/><path class="cls-1" d="M482.22,259.58a2.35,2.35,0,1,1,2.53-2.15A2.35,2.35,0,0,1,482.22,259.58Zm.3-3.64a1.31,1.31,0,1,0,1.19,1.41A1.31,1.31,0,0,0,482.51,255.94Z" transform="translate(-416.26 -217.08)"/><circle class="cls-1" cx="507.79" cy="241.36" r="1.83" transform="translate(-190.09 510.89) rotate(-85.36)"/><path class="cls-1" d="M507.6,243.7a2.35,2.35,0,1,1,2.53-2.15A2.35,2.35,0,0,1,507.6,243.7Zm.3-3.64a1.31,1.31,0,1,0,1.2,1.41A1.31,1.31,0,0,0,507.89,240.06Z" transform="translate(-416.26 -217.08)"/><circle class="cls-1" cx="521.23" cy="233.09" r="1.57" transform="translate(-169.52 516.66) rotate(-85.36)"/><path class="cls-1" d="M521.06,235.17a2.09,2.09,0,1,1,2.25-1.91A2.09,2.09,0,0,1,521.06,235.17Zm.25-3.12a1,1,0,1,0,1,1.12A1,1,0,0,0,521.31,232Z" transform="translate(-416.26 -217.08)"/><circle class="cls-1" cx="466.07" cy="223.05" r="1.83" transform="translate(-210.18 452.47) rotate(-85.36)"/><path class="cls-1" d="M465.88,225.39a2.35,2.35,0,1,1,2.53-2.15A2.35,2.35,0,0,1,465.88,225.39Zm.3-3.64a1.3,1.3,0,1,0,1.2,1.41A1.31,1.31,0,0,0,466.17,221.75Z" transform="translate(-416.26 -217.08)"/><circle class="cls-1" cx="471.31" cy="240.76" r="1.83" transform="translate(-223.07 473.94) rotate(-85.36)"/><path class="cls-1" d="M471.12,243.1a2.35,2.35,0,1,1,2.53-2.15A2.35,2.35,0,0,1,471.12,243.1Zm.3-3.64a1.31,1.31,0,1,0,1.19,1.41A1.31,1.31,0,0,0,471.41,239.45Z" transform="translate(-416.26 -217.08)"/><circle class="cls-1" cx="507.88" cy="289.14" r="1.83" transform="translate(-237.69 554.86) rotate(-85.36)"/><path class="cls-1" d="M507.69,291.48a2.35,2.35,0,1,1,2.53-2.15A2.35,2.35,0,0,1,507.69,291.48Zm.3-3.64a1.31,1.31,0,1,0,1.19,1.41A1.31,1.31,0,0,0,508,287.84Z" transform="translate(-416.26 -217.08)"/><circle class="cls-1" cx="495.48" cy="290.23" r="1.83" transform="translate(-250.06 543.58) rotate(-85.37)"/><path class="cls-1" d="M495.29,292.57a2.35,2.35,0,1,1,2.53-2.15A2.35,2.35,0,0,1,495.29,292.57Zm.3-3.64a1.31,1.31,0,1,0,1.19,1.41A1.31,1.31,0,0,0,495.59,288.93Z" transform="translate(-416.26 -217.08)"/><circle class="cls-1" cx="472.17" cy="293.15" r="1.83" transform="matrix(0.08, -1, 1, 0.08, -274.52, 522.94)"/><path class="cls-1" d="M472,295.5a2.35,2.35,0,1,1,2.53-2.15A2.35,2.35,0,0,1,472,295.5Zm.3-3.64a1.3,1.3,0,1,0,1.2,1.41A1.31,1.31,0,0,0,472.27,291.85Z" transform="translate(-416.26 -217.08)"/><circle class="cls-1" cx="524.75" cy="287.34" r="1.83" transform="translate(-220.4 570.01) rotate(-85.35)"/><path class="cls-1" d="M524.56,289.68a2.35,2.35,0,1,1,2.53-2.15A2.35,2.35,0,0,1,524.56,289.68Zm.29-3.64a1.31,1.31,0,1,0,1.2,1.41A1.31,1.31,0,0,0,524.86,286Z" transform="translate(-416.26 -217.08)"/><circle class="cls-1" cx="460.84" cy="284.38" r="1.83" transform="matrix(0.08, -1, 1, 0.08, -276.17, 503.59)"/><path class="cls-1" d="M460.65,286.72a2.35,2.35,0,1,1,2.53-2.15A2.35,2.35,0,0,1,460.65,286.72Zm.3-3.64a1.31,1.31,0,1,0,1.19,1.41A1.31,1.31,0,0,0,460.94,283.08Z" transform="translate(-416.26 -217.08)"/><circle class="cls-1" cx="467.63" cy="277.73" r="1.83" transform="translate(-263.25 504.29) rotate(-85.36)"/><path class="cls-1" d="M467.44,280.07a2.35,2.35,0,1,1,2.53-2.15A2.35,2.35,0,0,1,467.44,280.07Zm.3-3.64a1.31,1.31,0,1,0,1.19,1.41A1.31,1.31,0,0,0,467.73,276.43Z" transform="translate(-416.26 -217.08)"/><circle class="cls-1" cx="450.08" cy="263.74" r="1.83" transform="matrix(0.08, -1, 1, 0.08, -265.44, 473.93)"/><path class="cls-1" d="M449.89,266.08a2.35,2.35,0,1,1,2.53-2.15A2.35,2.35,0,0,1,449.89,266.08Zm.3-3.64a1.31,1.31,0,1,0,1.19,1.41A1.31,1.31,0,0,0,450.19,262.44Z" transform="translate(-416.26 -217.08)"/><circle class="cls-1" cx="427.1" cy="265.19" r="1.83" transform="translate(-288.07 452.32) rotate(-85.35)"/><path class="cls-1" d="M426.91,267.53a2.35,2.35,0,1,1,2.53-2.15A2.35,2.35,0,0,1,426.91,267.53Zm.3-3.64a1.3,1.3,0,1,0,1.2,1.41A1.31,1.31,0,0,0,427.2,263.89Z" transform="translate(-416.26 -217.08)"/><circle class="cls-1" cx="447.67" cy="228.97" r="1.83" transform="translate(-233.01 439.58) rotate(-85.36)"/><path class="cls-1" d="M447.48,231.32a2.35,2.35,0,1,1,2.53-2.15A2.35,2.35,0,0,1,447.48,231.32Zm.3-3.64a1.3,1.3,0,1,0,1.2,1.41A1.31,1.31,0,0,0,447.77,227.67Z" transform="translate(-416.26 -217.08)"/></svg>