<svg id="Layer_1" data-name="Layer 1" xmlns="http://www.w3.org/2000/svg" viewBox="0 0 357.9 372.76"><defs><style>.cls-1{fill:#ccc;}</style></defs><title>global-icons</title><path class="cls-1" d="M460,107.81A127.07,127.07,0,1,0,587.09,234.88,127.21,127.21,0,0,0,460,107.81ZM576.87,243.58c-.1-.17,0-.39-.13-.58s-.5-.46-.62-.78c-.68-1.67.32-2.21,1.19-3.14.13-.14.07-.43.2-.56s.24,0,.32,0c-.05,2-.17,3.89-.32,5.82A9.16,9.16,0,0,1,576.87,243.58ZM543,151.21c-.4,0-.53-.25-.62-.59ZM404.22,135.39c.19.57.73.93.58,1.68s-.47.72-.48,1.33c.82.68,2.84.33,2.92,1.68A4.54,4.54,0,0,1,406,143a5.48,5.48,0,0,1-1.15,3.92l-.13-.12c.33-.34.13-.86.06-1.38a1.19,1.19,0,0,1-.82.19c-.53-.25.11-1,.17-1.51a2.55,2.55,0,0,0-.08-1.36,4.1,4.1,0,0,0-1.75.45c-.88,1.22.42,1.15-.25,2.26-2.06,1.38-2.74-.81-4.58-.82-.62,0-1.23.55-1.92.42-.71.81-2.1,1.46-2.4,2.42s.62,1.05,1.32,1.58a4.92,4.92,0,0,0,.47,1.63c.84.25,1.31,0,1.86.35a4.62,4.62,0,0,1-.32,1.88c.07,1.06,1.29,1.42.67,2.65a6,6,0,0,1-3.46,2c-1.09.11-2.58-.67-4.23-.85a15.08,15.08,0,0,1-3-.21c-.76-.35-.71-1.42-1.33-1.41-1.15.15-2.35,1-3.66,1a14,14,0,0,1-2.27-.62,11.67,11.67,0,0,1-2.61-.3c-.48-.32.65-1.52-.08-1.7.08-.44-.74.13-1.1-.2l-.15-.18c.51-.52,1-1.06,1.51-1.58.17.13.37.23.55.37s0,.32.12.4a6.29,6.29,0,0,0,4.31,1.55,12.8,12.8,0,0,0,2-.56,5.71,5.71,0,0,1,2.1-.37c.62.14.83,1.23,1.94,1.51a4.23,4.23,0,0,0,2.65-.44c.57-.28.9-.37,1.18-.93.57-1.14-1.29-2.26-1.74-3.38a2.35,2.35,0,0,1-.13-1c0-.16-.12-.28-.11-.4,0-.44.36-.94.38-1.26,0-.12-.13-.22-.11-.4a4.33,4.33,0,0,0,0-1.5,20.21,20.21,0,0,1-2.77-.48,12.13,12.13,0,0,1-2.25-.19,1.58,1.58,0,0,1-.31-.14c1-.86,2.1-1.7,3.17-2.52a3.67,3.67,0,0,1,.52-.12c1.72-.25,3.8.74,4.92-.68,1.35-1.7-.48-1.65-1-2.21-.05-.05-.08-.13-.13-.19,1.54-1.09,3.1-2.14,4.69-3.15a.58.58,0,0,1,0,.17c.86.26,1.49,0,2.1.33s.49,1.45,1.11,1.68a2,2,0,0,0,2.21-.39c.54-1.24-.42-1.92-.75-2.56a1.71,1.71,0,0,0-1.26-1.13l-.32,0c2.66-1.58,5.37-3.06,8.15-4.43,0,0,0,.05,0,.08a20,20,0,0,1-.34,2.81c-.09.5.08,1-.42,1.51-1.06.52-2.13-.8-3.17.06C403.65,134.27,404.05,134.87,404.22,135.39Zm-15.4,193.36c.31.12.61.25.91.38.26.31.53.6.8.89C390,329.6,389.39,329.19,388.83,328.75Zm4.65,3.36a5.93,5.93,0,0,0,.81.28,7.3,7.3,0,0,1,1.28,1.11Q394.52,332.82,393.47,332.11Zm6.55,4.18c.35,0,.4-.21.4-.59a2.55,2.55,0,0,0-.27-1.1c-.84-1.32-3.48-2.57-4.77-3.45-1.9-1.29-3.26-2.61-4.61-3.43-.74-.05-.84.29-1.67.17-.55-.53-.64-.6-.81-1.09-.09-.24.18-.54-.13-.93-.45-.71-1.12-.75-1.54-1.55a1.28,1.28,0,0,1-.14-1.25,4.57,4.57,0,0,1-.61-2.36c0-.24.34-.58-.39-.95-.42-.31-.45,0-.65.18a2.63,2.63,0,0,0-.81,1c-.11.19-.36.12-.33.47.08.76,1.05,1.69,1,2.49-.14.35-.94.27-1.29.49a117.63,117.63,0,0,1-41.26-88.52c.72-.76,1.72-1.68,1.83-2.23a6.15,6.15,0,0,0,.28-1.5c-.05-1.39-1.2-1.87-2-3a117.69,117.69,0,0,1,4-25.17c0,.37.06.8.12,1.16a8.56,8.56,0,0,1,.24,2.41,4.36,4.36,0,0,1,1.86,3.08c0,.36.18.71.2,1s-.21.72-.19,1.13.4.61.2,1a6,6,0,0,0,1.37.8c-.07.71.54,1.21.87,1.84s.35,1.61,1,1.48c-.21-.06,0-.57.18-.55,1,1.71,1,4,1.65,6.5.41,1.61,1.08,3.27,1.55,4.7a4.51,4.51,0,0,1,.42,1.75c-.09.88-.76,1.64-.87,2.56-.16,1.48,2.28,4.21,3,5a13.71,13.71,0,0,0,1.41,1.48c.23.18.55.26.77.45a19.93,19.93,0,0,0,2.19,1.93c.91.46,2.1.4,3.18.81.67.6.73,1.57,1.05,2.19s.94,1.29,1.28,2.06a4.22,4.22,0,0,1,2.16,1.33,4,4,0,0,1,.95,2,6.53,6.53,0,0,1,.34,1.56c0,.56-.3,1.06-.19,1.6a5.77,5.77,0,0,0,1.29,2.09c.08.11.15.35.24.49.38.65.89,1,1.21,1.66.43.42.55,1.06,1.1,1.4.73-.18,1-1.34,2-1a8.28,8.28,0,0,0,2.59,2.84,3.74,3.74,0,0,0,.39.67c-.8,2.94-2.3,6.63.46,10.41.08.87-.36,1.82,0,2.68.47,1.15,2.09,2,3.32,2.77s2.62,1.42,3.45,2.54c.58.8.7,1.77,1.15,2.36a9.37,9.37,0,0,0,1.25,1.09,7.92,7.92,0,0,1,1.26,1.1,19.71,19.71,0,0,1,1.2,1.93c2.05,1.29,5.2,1.16,7.08,2.42,1.32.89,1.44,1.76,2.1,3.57.26.72.72,1.56,1,2.4.92,2.58,1.66,5.79,2.44,8.2.37,1.12.91,2.11,1.18,3a7.52,7.52,0,0,0,.33,1.56c.39.78,1.29,1.42,1.64,2.24a6.06,6.06,0,0,1,.26,2.18c0,.46.2.9.27,1.36a22,22,0,0,0,.37,2.75c.14.49.43,1.08.64,1.68a11.13,11.13,0,0,0,.65,1.66c.35.62,1.08,1.3,1.35,1.9a10.58,10.58,0,0,1,.31,1.34c.13.49.46,1.05.58,1.48.17.64.12,1.3.26,2a15.84,15.84,0,0,0,.64,2.26c.38.93,1.09,1.8,1.45,2.68.19.48.19,1,.45,1.5.42.64,1.06.58,1.39,1.5a6.08,6.08,0,0,1-.11,1.81,15,15,0,0,0,2.39,3.86c.6.84,1.11,1.9,1.6,2.43.05.06.45.22.53.29.25.21.32.49.58.67a10.45,10.45,0,0,0,1.65.66c.43.17,1,.44,1.22.54s.34.21.53.29c.87.35,1.76.61,2.49.88a5.17,5.17,0,0,0,2.34.32c.48,0,1.06.24,1.48.09.11-.71.82-1.09.18-2.23-1.91-1.09-3.3-1.1-4.38-2.69-.56-.8-.55-1.67-.94-3-.15-.57-.55-1.15-.71-1.65-.07-.28,0-.5-.05-.8s-.31-.8-.31-.94c-.06-1,.76-1.66.34-2.5-.21-.42-.39-.28-.61-.47s-.3-.48-.54-.68c-.5-.42-1.12-.48-1.33-1.12.18-2,.88-3.78.69-6.05-.54-1.1-1.63-.67-2.1-2,.33-.44,1.49-.42,1.61-1s-.24-1.66-.46-2.55c.5-.35.59-.91,1.11-1.31s1.79-.65,2-1.11a4.42,4.42,0,0,0,.2-3.77c-.56-1.13-1.19-1-2-2.19,1.15-.19,3.13-.53,3.49-1.32.12-.24-.07-.53,0-.83.26-.92.65-1.94.95-2.76a10.16,10.16,0,0,0,.58-1.41c.17-1.17-.3-3,0-3.77.08-.2,0-.46.12-.67a2.46,2.46,0,0,0,.07-1.28c-.17-.71-1-1.56-1.17-2.41A6.58,6.58,0,0,1,428,293c.19-.41.66-.42.92-.67.05-.05,0-.37,0-.43s.58-.2.82-.44.16-.56.31-.72.62-.24.81-.44.11-.53.32-.73c.44-.41,1.1-.62,1.39-1a5.38,5.38,0,0,0,.64-1.45c.12-.58-.15-1.81-.1-2.95a26.93,26.93,0,0,0,.25-3.68,16.86,16.86,0,0,0-.76-3.83,12.87,12.87,0,0,1-1.09-3.1,6.56,6.56,0,0,1,.67-2.11,26.62,26.62,0,0,0,1.11-4.39,9.74,9.74,0,0,0,.38-2.46,11.33,11.33,0,0,0-1.35-3.46c-.16-.14-.17-.3-.37-.53a22.78,22.78,0,0,0-3.41-1.77c-.17-.09-.24,0-.44-.08-.48-.2-.84-.6-1.24-.69a7.44,7.44,0,0,0-1.42,0c-.08,0-.39-.27-.5-.27-.35,0-.76.12-1.17.14a14.39,14.39,0,0,0-2.53.33c-.66.12-1.64-.55-2-.67-.2-.06-.4,0-.62,0a20.58,20.58,0,0,0-2.11-.85c-.17,0-.38.16-.55.16-.45,0-1.3-.39-1.86-.08-1.47-.51-1.73-1.71-2.44-3.09a11.37,11.37,0,0,0-1-1.82,9.77,9.77,0,0,0-2.1-1.48,6.15,6.15,0,0,0-2.42-1.18c-1.17-.15-1.95.57-3.47.63a20.48,20.48,0,0,1-6.17-2.77c-.78-.88-.71-2.6-2.21-2.49-1.05,0-2.67,1.93-3.81,2.86a4.65,4.65,0,0,0-2.35.3c-.14-.23-.46-.14-.68-.21a1.73,1.73,0,0,1-.79-.6s-.38-.05-.44-.07a3.63,3.63,0,0,0-1.78-.51c-2,0-2.07,1.23-3.18,2.24-.35.32-.83.48-1.19.78a3.71,3.71,0,0,0-.94.91c-.39.88.11,2.24-.33,3.08a19.22,19.22,0,0,1,0,3.74s.06,0,.09,0c0,.33,0,1-.05,1h0c-.5,0-.42-.84-.6-1.14a2.15,2.15,0,0,0-1-.91c-.64-.27-1.36.35-2.1,0-1-.5-1.83-2.69-1.7-4.09.18-1.94,1.53-3.39,1.61-4.46a4.14,4.14,0,0,0-1.23-2.89c-.69-.49-2.3,0-2.77-1.71.16-.8.92-1.44,1.3-2.27.23-.53.25-1.18.45-1.72.39-1,1.36-1.94.93-2.81a2.58,2.58,0,0,0-3.12.27c-.42.33-.52.79-.85,1.18a2.59,2.59,0,0,1-1.13.88c-.41.15-.9-.12-1.58-.09s-.89.43-1.46.15c-1-.47-1.38-2.44-1.45-3.33s-.44-1.73-.43-2.38a17.14,17.14,0,0,1,.3-1.75,7.3,7.3,0,0,1,1.66-4,6,6,0,0,1,.33-2.35c.44-.89,2-1.37,2.83-1.6s2.19-.81,2.88-.58.64.74,1.1,1.14a2.57,2.57,0,0,0,1.71.92c1,0,1.51-1.31,2.55-1.29a5.19,5.19,0,0,1,2.37,1.11,3.66,3.66,0,0,1,1,2.14c.14.7.16,1.48.26,2.15s.23,1.31.33,2a4.58,4.58,0,0,0,.06,1.05c.1.33.19.68.65.83.45-.18.63-.61.94-.76.12-.05-.11-.24-.11-.24a26.81,26.81,0,0,0,.55-3.15c0-.27.11-.7.12-1a11.76,11.76,0,0,1,0-1.86,4.59,4.59,0,0,1,2.09-3.31c.16-.07.4,0,.55-.05.61-.34,1.23-.85,1.8-1.13.17-.08.39,0,.55,0a5.35,5.35,0,0,0,3-2.65c.32-.85,0-1.86.31-2.62s1.14-.25,1.41-1c-.16-.35.18-1,.34-1.56,2.69-1.39,5.87-4.49,8.78-5.22.38-.09.78,0,1.27-.06s.81-.34,1.18-.3c.53.05,1.08.54,1.58.65a5,5,0,0,0,2-.07c.34-.07.66-.08.95-.15.07,0,.21-.3.29-.33a5,5,0,0,1,.56-.06c1.45-.34,3.6-.6,3.89-2.47-.08-.25-.58-.22-.29-.71-1.26-.71-2.33.69-3.28.15-1.55-.89.39-3.54-.28-5.3-1-.51-1.92.17-2.85.48s-2.15,1.15-2.43-.24c.34-1,1.37-1,2.08-1.31a6.61,6.61,0,0,1,2.28-.84c1.72-.09,3.55,1,5.34,1,.2,0,.54-.17.78-.21.4,0,.8.14,1,.08a26.16,26.16,0,0,0,2.47-1.43c.86-.42,2-.38,2.37-1.66.22-.79-.64-1.73-1-2.16a22.26,22.26,0,0,0-2.54-3.18c.13-.81-.46-1.34-.41-2.19,0-.67.55-1.48.63-2.12a7.44,7.44,0,0,0,0-1.26c0-.43-.18-.91-.2-1.3a5.57,5.57,0,0,0-.39-2.58c-1.38,0-2.24,2-3.53,1.79-.27-.05-.23-.22-.49-.54a3.72,3.72,0,0,1-1.08-2.12,4.63,4.63,0,0,0,.75-2.68c-.05-.82-.57-1.11-1-1.87-.48-.93-.4-1.42-.87-1.64s-1,.06-1.59,0c-.77,0-1.42-.51-2.22-.13a4.82,4.82,0,0,0-1.11,1.77c-.32.72-.37,1.5-.7,2.07-.6,1-1.63,1.11-2,2.16.29,1.47.34,4-1.16,5.42-.73.67-1.83,1.07-2.35,1.85-1.38,2.09-1.46,5.55-3.72,5.38-1-1.43-.86-3.53-.15-5.95-.25-1-1.12-1-1.73-1.45-.05,0-.1-.39-.17-.45-.29-.2-.84-.21-1.06-.46s-.22-.63-.34-.89c-.29-.64-.45-1.24-.67-1.78-.3-.76-.56-.76-1.06-1.26,0,0,0-.34,0-.4a3.27,3.27,0,0,0-.4-.3c-.42-.35-1-.46-1.54-1a18.5,18.5,0,0,1,.16-1.95c-1.09-1-1.83-2.26,0-4.36.53-.6,1.71-.92,2.91-1.72.6-.39,1.11-1,1.71-1.4a9.19,9.19,0,0,1,1.95-1.15c1.43-.55,2.8-.13,3.82-.34.67.37,0,1.72.75,2.17a2.06,2.06,0,0,0,2.72-1c.71-1.36-.61-1.23.07-2.79,1.18-1,3.89-1,4.74-2.74a3,3,0,0,0,0-1.81,3.6,3.6,0,0,1,.61-3.06,5.36,5.36,0,0,1,3.37-1.67c1.8-.13,2.17,1.13,2.56,2.15a6,6,0,0,0,.58.93c.63,1.24,1.62,2.23,1.13,3.89a22.75,22.75,0,0,1-2.4,2.69,3.18,3.18,0,0,1-1.53,1.88c-1.61.13-4.07-.07-4.29,2.65.54.77,1.58.53,2.3.74a5.87,5.87,0,0,1,3.16,2c.27.41.36.9.72,1.2a6.86,6.86,0,0,0,1.75.83c.58.22,1.29.78,2,.28.55-1.71-2.62-1.74-1.37-3.41,1.41-1,2.36,2.39,3.71.29.77-1.46-1.48-2.19-.71-4.07.34,0,.52-.43.87-.41.56.16.64.76.78,1s.29.13.39.3c.28.44.32,1.23.94,1.46a1.91,1.91,0,0,0,1.49-1.08,3.45,3.45,0,0,0,1.33-1.94c.14-.43-.06-.37-.07-.64s.2-.54.16-.78c-.23-1.35-1.81-2.2-2-3.34-.71-.4-1.32-.86-1.29-1.72s.6-1.57.54-2.33c-.13-1.64-2.37-2-2.33-3.75a6.65,6.65,0,0,0,.28-2.36c-.62-.47-1.88-.52-2.57-.94-.32-.68-.08-1.72-.3-2.46-.68,0-1.32-.39-2.12-.43-.47,0-.93.18-1.39.12s-.87-.38-1.28-.45a26,26,0,0,0-3.89-.57,2.85,2.85,0,0,0-1.38.71,8.56,8.56,0,0,0-2.71,2.6,3.1,3.1,0,0,0,.1,1.78,6.81,6.81,0,0,1,.26,3.21c.18.72,1.16,1,.91,2-.55.41-.93,1.33-1.57,1.45a4.06,4.06,0,0,1-2.15,2.32c-.6-.24-.66-.8-.73-1.34a1.31,1.31,0,0,1-1.25-.27c-.2-.77-.15-1.68-.35-2.44.28-1.09-.27-1.67,0-2.74.41-.7,1.09-.56,1.44-1.47.13-1.45-1.92-1.62-1-3.31a2.94,2.94,0,0,1,1.67-1.23c.72-.27,1.58.06,2.46-.5.08,0,.12-.28.19-.35s.32-.05.4-.12a1.84,1.84,0,0,0,.43-.64h0c.87-1,1.79-3.58,2.37-4,.94-.44,2.07-.28,3.53-.36,1.15-.07,3.75-.13,4.51-.53a10.76,10.76,0,0,0,2-2.3,18.11,18.11,0,0,1,1.78-1.73c.16-.16.17-.4.33-.58a16.56,16.56,0,0,1,2.77-2.49c.5-.37,1-.6,1.37-1,.87-.79,1.51-2,2.35-2.71.11-.09.47-.24.72-.39,1.44-.83,2.94-1.47,4.16-2.3.59-.42,1.11-.91,1.55-1.17a13.33,13.33,0,0,1,2.07-1c.43-.17,1-.17,1.45-.38.13-.05.35-.42.61-.58s.31.07.44,0,.31-.32.41-.39c.75-.5,1.27-.71,1.44-1.36s-.67-1.4-1.28-1.6a9,9,0,0,0-1.88,0,32.7,32.7,0,0,0-4.6-.21c-.88.07-1.81.42-2.46.4s-1.12-.42-1.76-.38a14.29,14.29,0,0,0-1.8.6,46.71,46.71,0,0,0-5.3,1.41,1.63,1.63,0,0,0-.65-.24,117.73,117.73,0,0,1,106.15,13,11.43,11.43,0,0,0-1.66,1.81c-.51.6-1.16.93-1.39,1.31s-.08.73-.22,1.16c-.33,1-1.2,2.17-1.23,3.08,0,.13.39.62.07.79a15.69,15.69,0,0,0,2.88,2.85,3.48,3.48,0,0,0,3.8-.05c-.48-1.51-1.44-1.35-1.83-2.61a7,7,0,0,1,0-3.31,8.19,8.19,0,0,1,.87-1.33,9,9,0,0,1,1.37-1.81,117,117,0,0,1,9.39,7.45,2.27,2.27,0,0,0-.83,1.36c-.15.87.36,2,0,2.91a5.31,5.31,0,0,1,.54,1.51,7,7,0,0,1-.78-.5c-.29-.21-.51-.64-.8-.81a7.46,7.46,0,0,0-.72-.23,6.2,6.2,0,0,0-3-.52c-.88-.41-2.07-1.64-2.66-.5.06,1.4,1.67.91,1.66,2.4-.68.75-1.75.49-2.57.49a21.52,21.52,0,0,0-3.16-.12c-.7.12-1.09.66-1.66.92s-1.18.1-1.72.33c-.34.14-.6.53-1,.75s-.46,0-.69.17c-.07,0-.06.34-.15.39s-.41-.1-.53,0c-.79.64-.87,2-2.14,1.91-1-.56-.57-2.76-2.12-2.61-1,.23.11,2.67-1.05,2.72-.63.46-1.24-.19-1.94.15a14.78,14.78,0,0,0-1.48,1.74c-.17.26-.13.68-.3,1s-.36.34-.5.57c-.49.82-.9,1.75-1.69,1.74s-2.76-1.86-2.32-3.59c-.3-.35-.65-.67-.94-1s-1-.44-.78-1.39c1.36.18,2.47,1.1,3.79,1.26,1.83.21,3.77-.39,3.77-1.88,0-.74-.78-1.63-1.73-2.41-.07-.06-.26,0-.35,0s-.13-.35-.19-.4a17.91,17.91,0,0,0-4-2.06c-.27-.11-.49-.3-.72-.4-.5-.23-1.16-.21-1.59-.42-.13-.07-.24-.51-.37-.6s-.7-.09-.88-.21-.12-.34-.2-.4-.38-.07-.53-.21a5.54,5.54,0,0,1-.56-.79,8.92,8.92,0,0,0-2.18-2.21c-2.53.19-5.25.26-6.72.9-.71.31-1.9.28-2.41.57-1.09.6-2,2.36-3.07,3.34s-2.9,1-3.13,2.76c.41.92,2.3.19,2.31,1.59q-2.59,3.18-5.47,6.12c-2,.43-2.89,2.28-4.31,3.37-.71.54-1.54.66-2.18,1.39-.37,3.59,0,6.73,1.93,8.3.34-.25.58-.11.91-.2s.69-.45,1.1-.59.84-.05,1.27-.2c.1,0,.19-.34.37-.41s.62.07.91,0c.63.13.53.92.72,1.39s.52.89.74,1.38c.47,1,.76,2,1.29,3,1.08,0,1.34-.79,2-1.18.48,0,1,.08,1.27-.2.78-1.29.06-2.74.52-3.76s1.7-.88,2-2.17c-.92-1.1-1.83-.86-2-2.38a9.27,9.27,0,0,1,.51-2.37c.53-1.87,1.24-3.13,2.46-3.75a8.3,8.3,0,0,0,1.59-1.17,4.55,4.55,0,0,1,.3-2.37c.11-.13.05-.24.17-.39.71-1,3-1.34,3.38.23.1.43-.22.82-.49,1.38-.87,1.68-2.22,2.79-3,4.13a7.24,7.24,0,0,1,.42,3c1,1,1.17,2.49,2.41,2.58.59.05,1.19-.76,2.14-1.17.29-.13.82,0,1.26-.18.06,0,.25-.36.35-.4s.53.1.72,0c.74-.33,1.18-.9,1.77-1.16.8-.35,1-.05,1.46.42.23.24.7.38.57.8-.27,1.06-1.24,1.26-1.93,1.75-.32.23-.42.46-.7.58s-.74.09-1.08.19l-1.44.37c-.51.13-.82.75-1.44.77-.43.37-1.56,0-1.81.58-.33.8.55,2.2-.49,2.77-.55.51-.91-.5-1.83-.21-.89.69-.72,1.92-1.23,2.76a11.67,11.67,0,0,1-2,2,10.11,10.11,0,0,1-2.93,1.37,5.28,5.28,0,0,1-.92.39c-.61.12-1.33-.11-2,0-.54.07-1,.46-1.66.59-.81.16-1.87,0-2.76.2-.6.12-1.18.44-1.85.59-1.08.25-2.22.19-2.58.4a5.42,5.42,0,0,0-.94,1c-.26.41-.24,1-.56,1.39a8.71,8.71,0,0,1-1.49,1.19,15.39,15.39,0,0,0-3.38,3.18,6.9,6.9,0,0,0-2.62,1.2c-.74-.51-2.23-.12-2.44.61.15,1,1.58,1.36,2.39,2.35.26.33.45,1,.73,1.38.41.62.83.88.92,1.38.22,1.12.12,2.91-1.17,3.36-2.25-.36-5.57-.86-7.7-.15a.56.56,0,0,1-.39.59c.06,1.53.55,2.78.31,4.34-.11.7-.55,1.27-.6,2a5.17,5.17,0,0,0,.9,3.55,3.87,3.87,0,0,0,1.7.19c.76.38.95,1.35,1.88,1.57a2.87,2.87,0,0,1,2.85-1c.19-.4.76-.62,1-.79s.24-.28.38-.39a10.86,10.86,0,0,0,1.52-1c.09-.1.13-.49.2-.6a7.14,7.14,0,0,0,.59-3c.69-.31,1-1.09,1.52-1.59.27-.26.69-.36.95-.59s.35-.69.76-.79a2.21,2.21,0,0,1,1.33-2.38c.85,0,1.29.48,2.07.59,1.28-.51,1.91-1.7,3.39-2a5.55,5.55,0,0,1,1.69,2.38,5.2,5.2,0,0,0,2.27,2.76c1.49,1,3,1.78,3.41,3.76-.23.42-.52.78-.75,1.19s-1.16.11-1.13.79c.34.37.51.91.94,1.19.41-.3.58-.84.95-1.19s1.07-.45,1.12-1.18a4.37,4.37,0,0,0,0-2c.32-.46,1.7.19,1.5-.79-.55-1.33-1.84-1.88-2.84-2.57l-.19-.21c-.16-.16-.15-.05-.37-.19-.72-.45-.82-.89-1.32-1.58-.76-1-2.63-2.21-1.51-3.76,2.09,0,2.84,2.16,4.14,3,.63.4,1.16.81,1.7,1.2.77.53,1.61.95,1.9,1.78a12,12,0,0,1,0,2.18c.36.72.78,1.28,1.14,2.17.55,1.36.58,3.16,2.11,3.56,1.18-.64,2.61-.28,2.83-1.57s-1.62-1.78-1.53-3a2.23,2.23,0,0,1,2.24-1.77c.74.1,1.26.92,1.53,1.59.45,1.12.27,3,.79,3.55a8.77,8.77,0,0,0,.77.79c.24.2.35.42.58.59s.55.27.76.4c1.05.67,1.5.18,2.65-.19a5.75,5.75,0,0,0,2.1.8c.87,0,1.53-.89,2.27-.38.59.12.32.83.39,1.19.43,2.18-.52,3.74-.69,5.52-.67.54-.93,1-1.51,1.18-1,.34-1.86-.07-2.85,0-.5,0-1.11.34-1.71.39a7.63,7.63,0,0,1-3.05-.4c-.07,0-.27-.36-.38-.39-.37-.12-.8-.09-1.14-.2s-.78-.27-1.15-.4c-1.84-.64-3.2-1.65-4.18-1.39-.63.16-.85,1.13-1.33,1.19.34,2.12-.85,2.48-2.66,2a5,5,0,0,1-2.47-1.59,6.85,6.85,0,0,0-1.14-1c-.62-.35-2.39-.52-2.66-.8-.64-.63-1.73-1-1.71-2a9.56,9.56,0,0,0,.38-4.35c-.8-1-1.88-.42-2.84-.39-1.83,0-3.55.07-5.1.2a21.12,21.12,0,0,0-2.47.2c-.37.1-.57.42-.95.6-.83.41-1.56.65-2.28,1a6.73,6.73,0,0,1-1.15.59c-.91.2-1.71-.21-2.28.2-.6-.23-.92-.74-1.7-.79-.93.79-1,2.16-1.74,3-.36.37-1,.53-1.33.79a3.81,3.81,0,0,0-1.54,2.17,5.13,5.13,0,0,0-.39,1.19c0,.52.38,1.27.18,2.17s-2,2.75-2.69,3.36c-.2.18-.53.2-.76.39a8.36,8.36,0,0,0-1.72,2c-.33.5-.67.92-1,1.38a28.31,28.31,0,0,0-1.34,2.56,7.62,7.62,0,0,0-1.15,2.76,4.16,4.16,0,0,0,.38,3,10.4,10.4,0,0,1,.58,4.73c-.12,1.11-.91,2.22-.93,3.35,0,.22.53,2.59.59,2.75.13.32.84.82,1,1s.08.44.19.59.31.11.39.2.06.41.2.59.3.1.38.19a5.94,5.94,0,0,1,.77,1.38c.55,1.06.73,1.91,1.18,3s2,1.95,3.07,3,2,2.39,3.25,2.39c1,0,1.71-1.11,2.83-1.17.81-.05,1.21.48,2.28.6a25.67,25.67,0,0,1,4.72-1.57c1-.28,2.18-1.07,3-1,1.78.17,1.72,2,3,3.17,1,.1,1.41-.38,2.27-.39,1.91,1.16,1.79,2.35,1.51,4.16-.07.45-.12,1-.19,1.38a12.09,12.09,0,0,0-.56,2.77c.13,1.5,1,2.07,1.7,3a20.36,20.36,0,0,1,2.81,5.94c.4,1.26.18,2.27.36,4,.1,1,.63,1.84.55,2.76s-.89,2-1.31,3.17c-.14.39-.06.92-.18,1.38-.19.66-.64,1-.74,1.59-.19,1.22.13,2.28,0,3.75,1,.73,1,2.16,1.45,3.37.27.77.82,1.39,1.08,2.17.6,1.85.39,4.38.68,6.53a7.53,7.53,0,0,0,1.23,3.16,13.3,13.3,0,0,1,.87,1.57c.23.58.28,1.34.51,2a6.57,6.57,0,0,1,.67,2c0,.83-.52,1.54-.39,2.37a2.58,2.58,0,0,0,1.38,1.77c.95.27,2.56-.67,4.23-.83a10.5,10.5,0,0,0,3.18-.42,3.69,3.69,0,0,0,1.8-1.22,18.52,18.52,0,0,0,2.4-2.79c.25-.35.52-.6.75-1s.36-.85.58-1.2c.87-1.36,1.41-1.58,1.73-3a16.35,16.35,0,0,0,.32-3.16c.73-1.09,2.38-1.16,3-2.42.24-2.51-.36-4.15-.66-6.1a9.51,9.51,0,0,1,2.5-3.18c.71-.52,1.52-.54,2.24-1,.08-.05.12-.34.2-.4s.4-.08.55-.21a4.17,4.17,0,0,0,1-1.39,8.63,8.63,0,0,0,.48-2.76,28.63,28.63,0,0,0,0-5.51A5.79,5.79,0,0,1,512,280c-.08-.75.3-1.63.27-2.56s-.53-1.88-.48-2.56a11.61,11.61,0,0,1,.62-2.18c.39-1.13.87-1.34,1.57-2.17a14.92,14.92,0,0,0,1.18-1.78c.17-.29.21-.67.4-1s.55-.46.77-.8a16.52,16.52,0,0,1,1.18-1.78c.22-.22.53-.21.77-.4s.11-.32.2-.4.42-.07.57-.2a20.56,20.56,0,0,0,3.12-3.76A9.2,9.2,0,0,0,523,259c.16-.37.28-.65.39-1,.25-.64.31-1.41.61-2.16s1-1.7,1.39-2.76a5.59,5.59,0,0,0,.25-3.34c-.48-.39-.89.12-1.33.21a15.75,15.75,0,0,0-1.72.2c-.62.21-1,.68-1.72.79-.87.15-1.75-.09-2.84,0a4,4,0,0,1-.93-2c.27-.75,1.15-.87,1.92-1.38a12,12,0,0,1,1.92-1.39,13.94,13.94,0,0,1,1.53-.39,21.26,21.26,0,0,0,2.3-.8,5.29,5.29,0,0,0,2.87-2.17,4.68,4.68,0,0,1,1.54-1.57c.23-.16.38-.45.57-.58a12.45,12.45,0,0,0,1.53-.79,13.59,13.59,0,0,0,1.15-1.57c.4-.5.95-.94,1.34-1.37,2-2.22,2.94-3.73.76-5.48a8.44,8.44,0,0,0-1.91-.79,8.6,8.6,0,0,0-1.91-.79c-.77.16-1.43.76-2.28.79a4.15,4.15,0,0,1-3.25-1.78,13.11,13.11,0,0,0-1.36-3.14c-.24-.51-.57-1.06-.78-1.57a3.14,3.14,0,0,1-.4-2,2.62,2.62,0,0,1,1.32-.59c1.09.06,1.35,1.33,1.74,2,.27.44.53,1.18.78,1.56a8.15,8.15,0,0,0,1.15,1.19,2.86,2.86,0,0,0,1.53,1c.92.1,2-.69,2.86-.58s1.46.94,1.91,1.38a6.2,6.2,0,0,0,1.34.78c.48.14,1.33-.09,2.1,0a4.07,4.07,0,0,1,.56.13l-.58.92c.66.75,1.19,1.64,1.7,2.35.27.38.74.64.78,1.21a2.57,2.57,0,0,1-.09,1.75c.54.23.63.92,1.12,1.22.95.37,1.34-.76,2-.09.29.58-.12,1.33-.1,1.93,0,.24.26.57.29.79.11,1.28,0,2.17.16,3.12.16,1.33.55,2.48.78,3.72a21.68,21.68,0,0,0,.58,3.71,19.54,19.54,0,0,1,1,2.94c.25,1.05.28,1.67.84,2.16a1.21,1.21,0,0,0,1.22-.72c.18-.61.91-.51,1.25-.91a2.24,2.24,0,0,1,.27-1.34c.12-.09-.15-.2-.15-.2a22.26,22.26,0,0,0,.72-2.86c.14-1.16-.28-2.39.25-3.66.84-.91,1.76-1.85,2.51-2.58.32-.31.71-.43,1-.72,1.24-1.07,2.24-2.52,3.71-3.27a4.12,4.12,0,0,1,1.45-2c1.75.39,2.11-1,3.41-1.16a4.78,4.78,0,0,1,.71,2.71,5.56,5.56,0,0,1,1.83,3.34c.4.5,1.12.43,1.63.84a5.58,5.58,0,0,1,.78,1c.07.12.3.78.43,1.16a13.81,13.81,0,0,1,.42,1.34c.11.51,0,1,.06,1.53s.35.92.4,1.34c.08.6,0,1.29,0,1.91a11,11,0,0,1,.2,1.72c-.1,1-.67,2-.6,3s1,1.86,1.24,2.89c.13.61,0,1.48.11,2.28,0,.29.2.64.24,1,.12,1,.06,1.11.34,1.52.11.14,0,.41.11.57a2.82,2.82,0,0,0,2.16,1.56c.43-1-.05-1.78,0-2.64a3.7,3.7,0,0,0-.94-3.8c-.35-.57-.74-1.11-1-1.55a5.43,5.43,0,0,1-.45-.59,11.73,11.73,0,0,1-.4-1.14,6.1,6.1,0,0,1,.32-3.78c.2-.68.25-1.95,1-2,.8.06,1.12,1.08,1.53,1.76.53.87,1,1.9,1.67,2.14.21.07,0,.29.13.37.75.58,1.71.13,2.52-.32a117,117,0,0,1-5.72,22,2,2,0,0,1-1.39-.93c.09-.74.57-1.38.68-2a2.19,2.19,0,0,0-1.1-2.43,3.53,3.53,0,0,1-.11-1.3,14.33,14.33,0,0,0-1.36-1.49,4.4,4.4,0,0,1-1-1.43c-.11-.22-.25-.55-.29-.61s0-.15-.07-.29a6,6,0,0,0-1.27-2.06,2.05,2.05,0,0,0-1.44-.66c-.14,0-.19.08-.31.09s-.09.28-.09.42c0,1,.88,2.35,1.18,3.63.13.53.07,1,.22,1.46.34.87,1.15,1.44,1.47,2.22a4.74,4.74,0,0,1,.37,1.9,9,9,0,0,1,1,2.14c.14.29.4.56.6.94.08.14,0,.39.13.58s.2.11.24.18,0,.35,0,.43.49.2.76.39.64.47,1,.69A118,118,0,0,1,551.59,309c-.36-.51-1-.76-1.24-1.39.05-1.19-.11-3.26-1.3-2.76-.68.21-.47,1-.67,1.65a19.12,19.12,0,0,0-.73,1.82c-.11.55.06.92-.1,1.43a13.14,13.14,0,0,1-.89,1.66c-.47.83-.44,1.31-1.23,1.51-1,.25-1.56-1.21-2.34-1.8-.3-.23-.9-.22-1.18-.46-1-.82-.27-2,.41-3.07.29-.45,1-.91,1-1.68-.44-.51-1.57-.6-2.62-.75a7.2,7.2,0,0,0-3.31,0c-.7.28-.86.93-1.48,1.17-.51,1.18-.95,2.44-2.14,2.84-.89-.16-1.44-.75-2.26-.6-1.17.22-3.73,3-4.66,3.75-.3.25-.57.34-.83.59s-.37.51-.68.78c-.24.87.15,1.17-.34,1.86a4.58,4.58,0,0,1-1.7,1.38c-1,.38-1.66.05-2.41.34a12,12,0,0,0-3.25,2,31.3,31.3,0,0,0-2.81,2.58c-.29,2.36-1,4.5-1,6a9.38,9.38,0,0,0,.51,1.8c.05.24,0,.45,0,.74s.33.6.33.89-.29,1-.32,1.49c-.05.66.19,1.2.11,1.83-.22,1.62-.91,2.55-1.23,3.75a8.93,8.93,0,0,0,.93,1.12A117.5,117.5,0,0,1,400,336.29Zm109.49-103a11.94,11.94,0,0,1-.76-1.18c-.26-.65-.17-1.35-.39-2a5.15,5.15,0,0,0-1-1.77c-.57-.61-1-2.41-1.55-3.36,0-.35.22-.42.18-.79h.38c.87-.19,1.28.62,1.73,1.18.05.06.36.14.38.19a11.66,11.66,0,0,0,1.15,2.18c.31.43.58,1.3,1,2,.51.93,1.53,1.82,1.72,2.76.14.72-.25,1.46-.19,2.17a6.59,6.59,0,0,0,.37,1.58c.42,1,1.51,1.45,2.09,2.36.14.2.23.81.38,1.17a12.78,12.78,0,0,0,1,1.77,11.14,11.14,0,0,1,.93,2.16c.35.94,1,2.46-.22,3.34-1.12,0-1.53-1.46-2.27-2.35-.87-1.05-2.21-1.58-1.89-3.93a23.42,23.42,0,0,0-2.09-2.95A6.62,6.62,0,0,0,509.52,233.3Zm-2.4-37.47c.27-.63,1-.79,1.66-1.17l1.84-1a2.48,2.48,0,0,1,1.5.22c.1,2.07-1.88,2-2.33,3.52.25.6,1,1.07,1.54,1.59s1,1.13,1.55,1.59c.34.27,1,.31,1.33.6a2.42,2.42,0,0,1,.79,1.19c.22,1.91-3,2.48-4.67,1.73-.09,0-.12-.36-.2-.4s-.4.06-.56,0a14,14,0,0,0-1.9-.8,7,7,0,0,0-2.63.18c-.47.11-1,.5-1.5.58-1,.14-1.86-.14-2.83,0-.3-.48-.89-.66-1.15-1.19a18.17,18.17,0,0,1,1.25-4.14c.8-1.84,1.7-3.67,3.7-2.54a5.65,5.65,0,0,1,.61,2.18,4,4,0,0,0,.77,1,3,3,0,0,0,2.41-1.16C508.44,196.57,507,197.07,507.11,195.83Z" transform="translate(-288.62 -44.19)"/><path class="cls-1" d="M515.11,303.11a2,2,0,0,0,1.74.94c1.07-.1,1.75-1.38,2.36-3s1-3.1,1.36-4.34c.21-.75.26-1.5.5-2.18s.52-.76.64-1.38c.06-.32.29-.88.44-1.38.41-1.36.44-2.28,1.1-3.21-.34-1.2,0-3.57-1.1-3.57h-.37a1.08,1.08,0,0,0-.39.46c0,1-1.13,1.76-1.41,2.21-.12.22-.1.46-.21.61a5.65,5.65,0,0,1-2.1,1.61,6.52,6.52,0,0,0-1.52.82c-.09.11-.14.49-.2.6-.68,1.12-.33,2.22,0,3.93-.47,1.26-1.61,2.29-1.68,4.16a7.47,7.47,0,0,0,.74,2.93C515.1,302.62,515,302.9,515.11,303.11Z" transform="translate(-288.62 -44.19)"/><path class="cls-1" d="M448.43,159.09c.27-.72.54-1.47.8-2.33.37-.11.64-.52,1-.66.88-.29,1.52,0,2.28-.39a8.81,8.81,0,0,0,1.37-1.12c.46-.36,1.06-.64,1.48-1s.81-.88,1.22-1.27a6.8,6.8,0,0,1,1.35-1.13,9.35,9.35,0,0,1,1-.18c.26-.08.59-.29.86-.34a21.69,21.69,0,0,0,2.23-.23c.07,0,.33-.27.44-.32a6.22,6.22,0,0,0,1.93-1.77c.58-.65,1.16-1.11,1.23-1.74,0-.35-.25-.94-.18-1.24.2-.7.82-1,1.1-1.89a29.75,29.75,0,0,0,.38-3.27,25.5,25.5,0,0,1,.74-2.51c-.13-.76-.67-1.07-.78-1.84a17.67,17.67,0,0,0,1.18-3.14,7.37,7.37,0,0,0,1.18-1.6c.06-.07.21-.09.27-.16s.07-.35.17-.48c.59-.73,1.47-1.23,1.72-2.07a7.63,7.63,0,0,0,.06-2.49,15.36,15.36,0,0,0-1.81.38c-.26.08-.32.27-.54.32s-.71,0-1,0c-.52.08-1.19.59-1.41.06.09-1.17,1-1.2,1.12-2.37a4.47,4.47,0,0,0-2-1.32,9.91,9.91,0,0,0-1.68-.69c-.25,0-.6.11-.88,0-.45-.11-.89-.5-1.43-.54a21.08,21.08,0,0,0-3,.16,15.58,15.58,0,0,0-3,.18c-1.13.34-2,1.76-3,1.88-.34,0-.47-.19-.71-.26a2.12,2.12,0,0,0-2.11.61,4.5,4.5,0,0,1-.74.66c-.39.27-1,.49-1.05,1-.44.36.27.55.22.9.52.17-.12.64-.29.93-.75-.26-.66-1.59-1.31-1.88s-1.13,0-1.9.15-1.53,0-2.18.17c-.43.09-1,.45-1.5.57s-.63,0-1,.09a14.47,14.47,0,0,0-1.62.59,11.67,11.67,0,0,0-1.64.59,12.94,12.94,0,0,0-1.07.84c-.12.08-.3.25-.46.34s-.41.08-.68.21-.5.38-.75.52c-.6.33-1.31.44-1.53,1.18,0,.76,1.17.32,1,1.25-.5,1.2-1.32,1-2.46,1.26a18.13,18.13,0,0,1-2.5.82c-.06.37-.37.39-.53.64-.49,1.11.2,1-.06,1.93-.08.69-.65.68-.7,1.4.36.49.55,1,1.19,1.08a7.19,7.19,0,0,0,1.67-.44,25.33,25.33,0,0,1,2.77-.07c1.25-.06,2.17-.36,2.77-.06,0,0,0,.27.08.3.27.17.66.2.85.39a5.78,5.78,0,0,1,.93,1.45c.08.17-.05.39,0,.6s.32.16.35.28a5.8,5.8,0,0,1,0,.6c.07.28.14.41.17.6.14,1-.42,2.16-.25,3.2a8,8,0,0,1,2.28.16c.66.23.81.27,1.12.7.47.66.2,1.75.1,3.19a4.67,4.67,0,0,1-1,1,10.58,10.58,0,0,1-1.19.67l-.36.62a5.36,5.36,0,0,0-.64,2.63c0,.45-.2,1-.18,1.38a6.09,6.09,0,0,0,.5,1.5c.2.53.46,1,.66,1.49.13.31.06.64.17.91s.35.37.5.59a15.67,15.67,0,0,1,1.1,1.63,5,5,0,0,0,.87,1.19l1.72-.06c.76.34.85,1.36,2,1.31.77-.45.76-1.32,1-2s.53-1.17.72-1.56c.1-.19.08-.38.2-.62s.48-.5.64-.8S448.26,159.53,448.43,159.09Z" transform="translate(-288.62 -44.19)"/><path class="cls-1" d="M401.12,138.93a9.49,9.49,0,0,0-1.31,0,4.67,4.67,0,0,1-1.25-.4,3.58,3.58,0,0,0-2.48,1.1,8.5,8.5,0,0,0,.2,2.48c1.34-.29,1.2,1,1.93,1.29a3.73,3.73,0,0,0,2.27-.17C401.62,141.56,402.5,139.58,401.12,138.93Z" transform="translate(-288.62 -44.19)"/><path class="cls-1" d="M461,180.17c-.37-.59-.74-1-1.25-1a2.47,2.47,0,0,0-1.12.41c-.15.11-.08.42-.2.59s-.45.23-.56.39-.05.88-.22,1.38-.44.79-.59,1.19a3.6,3.6,0,0,0-.41,1.59c.34,2,2.33,1.2,3.13.56a1.37,1.37,0,0,0,.58-.8c.16-.34.65-.54.75-1-.46-.35-.37-1.27-.69-1.77C460.59,181.19,461,180.93,461,180.17Z" transform="translate(-288.62 -44.19)"/><path class="cls-1" d="M420.81,202.72c-.42-.91-.52-2-1.22-2.65-.19-.67-.09-1.52-.76-1.89l-.32-.09a4.58,4.58,0,0,0-1.39,1.93c-.88.8-1.92,1.21-2.63,2.42.21,1.49,2,1,3.23,1.52,1.44.57,2.57,2.64,3.87,1.72a2.91,2.91,0,0,0-.26-2.4C421.21,203,420.88,202.88,420.81,202.72Z" transform="translate(-288.62 -44.19)"/><path class="cls-1" d="M461,162.78a11.6,11.6,0,0,0,2-1,12,12,0,0,0,2.39-1.42c.62-.62,1.08-.84,1.15-1.6a2.67,2.67,0,0,0-1.84-2.33c-1.22-.28-3,.62-4.44.3-.86.18-.84,1.41-2,1.22-.62.16-.25-.71-.66-.78-.1-.38-.44-.5-.85-.56a3.36,3.36,0,0,0-1.79,2.8c0,1.49,1.32,2.26,2.12,2.9C458.53,162.1,459.57,163,461,162.78Z" transform="translate(-288.62 -44.19)"/><path class="cls-1" d="M468.52,182.28c.16-.55-.25-.51-.17-1a6.65,6.65,0,0,1-1.63-2c-.93-1.41-1.88-2.59-.66-4.14-.09-1-1.11-1-1.42-1.77-.2-.41.13-.77-.34-1.19-.73-.27-2.18.23-3.1.43a6.12,6.12,0,0,0-1.36,3c0,1.73,1.6,2.93,2.47,3.92,1.08.34,2.43.39,2.35,2-.39.65-1.28.76-1.87,1.2.14.67-.54,1.09-.78,1.78-.08.23,0,.55,0,.8-.14.71-.78,1.43-.6,2.38a6.66,6.66,0,0,1,.91,1c.91.14,1.88-.83,3.18-1.2.52-.14,1,.1,1.49,0,.29-.06.58-.42.93-.6s.9-.23,1.13-.4C471.23,184.83,470.14,183.35,468.52,182.28Z" transform="translate(-288.62 -44.19)"/><path class="cls-1" d="M383.21,237.86c-.23-.26-.49-.37-.72-.63s-.32-.34-.56-.59-.36-.67-.5-.78a18,18,0,0,0-2.37-1.14,1.41,1.41,0,0,0-1.86.88c.67,1.72,2.92,1.94,4,2.92a5.28,5.28,0,0,1,1.29,1.87c.26.45.39.85.79,1.07.69.39,1.62.78,2.19-.15,0-1-1.14-1.69-2-2.7C383.39,238.4,383.37,238.06,383.21,237.86Z" transform="translate(-288.62 -44.19)"/><path class="cls-1" d="M495.35,140a3.86,3.86,0,0,0,1.36,1c1.38.76,1.86.77,2.69,0a4.54,4.54,0,0,0,1.29-2c.13-.28.08-1.21.82-1s.75,1.54,1.39,2c1.38.06,2.84.21,3-1.15-.64-1-1.78-1.23-2.72-1.81s-2.08-1-2.22-2.4c2.31-.27,4.36,1.32,5.8.47a3.86,3.86,0,0,0,2-2.13c-1.07-2.93-6.62-2.41-8.6-1.7-.47.44-.74.94-1.45,1.17-.16.05-.54-.22-.82-.21-.46,0-.93.36-1.31.38a12.15,12.15,0,0,0-2.3,0,2.52,2.52,0,0,0-1.15,1.58c-.18,1.3.79,1.95,1.51,3.56C494.87,138.27,495.11,139.61,495.35,140Z" transform="translate(-288.62 -44.19)"/><path class="cls-1" d="M385.88,244.77a10.57,10.57,0,0,0,3.58,1.34c.61,0,1.67.37,1.79-.7C390.61,243.69,386.57,241.71,385.88,244.77Z" transform="translate(-288.62 -44.19)"/><path class="cls-1" d="M318.62,132.2a18.27,18.27,0,0,0-18.31,18,17.5,17.5,0,0,0,9.69,16v10a4.27,4.27,0,0,0,4.31,4,4.13,4.13,0,0,0,4.16,4,3.81,3.81,0,0,0,3.77-4,3.81,3.81,0,0,0,3.77-4v-10a18.06,18.06,0,0,0,10.31-16A17.74,17.74,0,0,0,318.62,132.2ZM322,176h-8v-4h8Zm2.52-13.33L322,163.77V168h-8v-4.23l-1.9-1.11a13.76,13.76,0,0,1-7.63-12.47,14.08,14.08,0,0,1,14.08-14,13.92,13.92,0,0,1,6,26.47ZM316,128.2v-6a2,2,0,0,1,4,0v6a2,2,0,1,1-4,0Zm19.94,12a2,2,0,0,1,.73-2.73l5.2-3a2,2,0,0,1,2,3.47l-5.2,3a2,2,0,0,1-1,.27A2,2,0,0,1,335.94,140.2Zm-8.05-10.05,3-5.2a2,2,0,1,1,3.46,2l-3,5.2a2,2,0,0,1-3.46-2ZM301.3,160.2a2,2,0,0,1-.73,2.73l-5.2,3a2,2,0,0,1-1,.27,2,2,0,0,1-1-3.73l5.2-3A2,2,0,0,1,301.3,160.2Zm-4.68-8.2h-6a2,2,0,1,1,0-4h6a2,2,0,0,1,0,4Zm-4-16.8a2,2,0,0,1,2.73-.73l5.2,3a2,2,0,1,1-2,3.46l-5.2-3A2,2,0,0,1,292.64,135.2Zm10.25-8.25a2,2,0,0,1,3.47-2l3,5.19a2,2,0,0,1-3.47,2ZM344.6,165.2a2,2,0,0,1-2.73.73l-5.2-3a2,2,0,1,1,2-3.46l5.2,3A2,2,0,0,1,344.6,165.2Zm4-15.2a2,2,0,0,1-2,2h-6a2,2,0,1,1,0-4h6A2,2,0,0,1,348.62,150Z" transform="translate(-288.62 -44.19)"/><path class="cls-1" d="M590.52,148.34" transform="translate(-288.62 -44.19)"/><path class="cls-1" d="M591,160h-2.93a3.84,3.84,0,0,1-4.07-3.61v-5.75a3.87,3.87,0,0,1,4.07-3.64h3l0,.87c0,.46,0,.8,0,1.26Zm-2.93-11c-1.1,0-2.07.51-2.07,1.64v5.75c0,1.12,1,1.61,2.07,1.61H589v-8.87c0-.18.08-.13.09-.13Z" transform="translate(-288.62 -44.19)"/><path class="cls-1" d="M634.27,160H631V149.13c0-.46.19-.8.16-1.26l.12-.87h3a3.58,3.58,0,0,1,3.73,3.64v5.75A3.55,3.55,0,0,1,634.27,160ZM633,158h1.27c1.1,0,1.73-.49,1.73-1.61v-5.75c0-1.12-.63-1.64-1.73-1.64h-1s-.25,0-.25.13Z" transform="translate(-288.62 -44.19)"/><path class="cls-1" d="M634.09,146.63" transform="translate(-288.62 -44.19)"/><path class="cls-1" d="M631,170H617v-5.25c0-.11.34.25.26.25H605.08c-.09,0-.08-.36-.08-.25V170H591V148.34c0-.6.13-1.21.19-1.83A20.72,20.72,0,0,1,607,128.64v-1a8.23,8.23,0,0,1-2.2-4.9,6.37,6.37,0,0,1,6.33-6.37,6.27,6.27,0,0,1,6.21,6.37c0,1.91-.35,3.7-2.35,4.9v1a19.56,19.56,0,0,1,15.81,17.86c.06.62.19,1.24.19,1.84Zm-10-3h6V148.34c0-.5.16-1,.12-1.52A16.13,16.13,0,0,0,613.28,132l-1.28-.2v-6.06l.69-.52a2.68,2.68,0,0,0,1.26-2.4,2.72,2.72,0,1,0-5.43,0,2.87,2.87,0,0,0,1.48,2.4l1,.52v6.06l-1.7.2a16.47,16.47,0,0,0-14.19,14.86c0,.52-.11,1-.11,1.52V167h6v-2.25a4,4,0,0,1,4.08-3.75h12.18a3.72,3.72,0,0,1,3.74,3.75Z" transform="translate(-288.62 -44.19)"/><path class="cls-1" d="M602.49,149.77a2.81,2.81,0,1,1-2.73,2.81,2.77,2.77,0,0,1,2.73-2.81m0-2.17a5,5,0,1,0,4.9,5,4.94,4.94,0,0,0-4.9-5Z" transform="translate(-288.62 -44.19)"/><path class="cls-1" d="M620.56,149.77a2.81,2.81,0,1,1-2.73,2.81,2.77,2.77,0,0,1,2.73-2.81m0-2.17a5,5,0,1,0,4.9,5,4.94,4.94,0,0,0-4.9-5Z" transform="translate(-288.62 -44.19)"/><path class="cls-1" d="M615.65,152.58" transform="translate(-288.62 -44.19)"/><path class="cls-1" d="M630,175v2H592v-2h38m2.06-4H590.27c-.91,0-1.27,1.07-1.27,2v5.73c0,.93.36,1.27,1.27,1.27h41.79c.92,0,1.94-.34,1.94-1.27V173a2.22,2.22,0,0,0-1.94-2Z" transform="translate(-288.62 -44.19)"/><path class="cls-1" d="M632.06,171.31" transform="translate(-288.62 -44.19)"/><path class="cls-1" d="M464.53,52c-1.52-.15-3.06-.38-4.59-.41a66.81,66.81,0,0,0-11.82,1.26,3.29,3.29,0,0,0-2.71,2.05c-2.17,4.16-4.53,8.22-6.82,12.32a1.71,1.71,0,0,0-.29.91c.22,1.29.53,2.55.82,3.94.38-.29.67-.51,1-.72a3.18,3.18,0,0,1,4.71.59,2.58,2.58,0,0,1-.25,3.36q-2.84,3.08-5.72,6.14a3,3,0,0,1-3.69.45,2.78,2.78,0,0,1-1.25-3.3,5.28,5.28,0,0,1,.84-1.61c.67-.89,1.45-1.72,2.16-2.6a1.26,1.26,0,0,0,.26-.87c-.18-1-.43-1.92-.67-2.87a.78.78,0,0,0-.4-.47,18.23,18.23,0,0,1-2-.75c-1.32-.72-2.58-1.54-3.87-2.32a8.15,8.15,0,0,0-1.13-.57c-1-.41-1.26-.85-.87-1.85s1-2.24,1.51-3.33A115.78,115.78,0,0,1,437,48.58a14.85,14.85,0,0,1,1.55-1.92,1.73,1.73,0,0,1,2.73-.25c1.42,1.1,2.8,2.29,4.12,3.52a2.16,2.16,0,0,0,2.16.69,60,60,0,0,1,11.66-1.42c3.3,0,6.57.34,9.47,2.2a1.41,1.41,0,0,0,2-.5c1.6-2.05,3.21-4.11,4.9-6.1.67-.81,1.26-.78,2.07-.09l13.87,12a1.12,1.12,0,0,1,.06,1.83c-1.2,1.32-2.42,2.64-3.65,3.93a3.75,3.75,0,0,0-1.22,2.11,12.61,12.61,0,0,1-2.51,6.32,12.8,12.8,0,0,0,1.19,1c1.67,1,1.92,2.6,1.51,4.31a5.86,5.86,0,0,1-4.49,4.57c-.44.12-.59.31-.66.79-.4,2.7-1.48,5-4.12,6.2a1.1,1.1,0,0,0-.43.82,6.8,6.8,0,0,1-1.41,4,4.39,4.39,0,0,1-3.23,1.67c-.63,0-.82.29-1,.84a6.23,6.23,0,0,1-5.84,4.4,4.91,4.91,0,0,1-2.4-.85c-2.65-1.86-5.22-3.83-7.83-5.76l-.25-.15c-.51.56-1,1.14-1.55,1.69a3,3,0,0,1-4.88-.82,2.18,2.18,0,0,1,.31-2.61c1.82-2.07,3.65-4.12,5.37-6.26a2.91,2.91,0,0,1,3.91-.48,3,3,0,0,1,.72,4,22.69,22.69,0,0,1-1.74,2l-.6.67c.76.6,1.45,1.19,2.18,1.73,1.92,1.39,3.86,2.76,5.79,4.15a1.89,1.89,0,0,0,1.94.22,4.13,4.13,0,0,0,2.8-2.65.85.85,0,0,0-.26-1q-3.69-3-7.4-6c-.53-.41-1.07-.78-1-1.57s.5-1.08,1.14-.89a4.8,4.8,0,0,1,1.63.79c2.1,1.67,4.15,3.39,6.22,5.09.21.16.38.34.59.5a2.61,2.61,0,0,0,4.25-1.42c0-.18.09-.37.12-.54a2.42,2.42,0,0,0-1-2.8c-2.33-1.72-4.56-3.55-6.8-5.37a2.22,2.22,0,0,1-.79-1,1.42,1.42,0,0,1,.21-1.2,1.84,1.84,0,0,1,1.2-.22c.25,0,.48.26.7.44l7,5.64c1.2,1,1.7.92,2.68-.28a5.47,5.47,0,0,0,1.44-3.43,1.51,1.51,0,0,0-.45-1c-2.05-1.76-4.13-3.47-6.19-5.23a5.5,5.5,0,0,1-1.07-1.19.88.88,0,0,1,.21-1.26,1.56,1.56,0,0,1,1.22-.19,4.84,4.84,0,0,1,1.38,1c1.88,1.6,3.75,3.21,5.59,4.85a1.6,1.6,0,0,0,2.1.31A7,7,0,0,0,484,77a2.34,2.34,0,0,0-.35-3.67q-7.74-6.8-15.48-13.55a1.76,1.76,0,0,0-1.26-.37c-2.26.29-4.52.62-6.74,1a11.85,11.85,0,0,0-2.11.78,5.64,5.64,0,0,1-5.78-.82,1.82,1.82,0,0,1-.26-3.06c1-1,2.18-1.72,3.18-2.67a7.22,7.22,0,0,1,4.72-1.88c1.54-.12,3.06-.4,4.6-.6a.78.78,0,0,1,0-.21Zm-24.31-3.69a103.06,103.06,0,0,0-9.56,16.44l5.06,2.95c2.61-4.75,5.18-9.41,7.73-14.07.26-.48.81-1,.72-1.47s-.75-.84-1.17-1.23C442.14,50,441.25,49.23,440.22,48.27Zm49,9.4c-.5-.41-.94-.76-1.35-1.13-1.82-1.63-3.61-3.28-5.47-4.88-1.69-1.45-3.45-2.84-5.18-4.24-.16-.13-.59-.19-.67-.1-1.17,1.36-2.32,2.76-3.5,4.18l12.4,10.26c1.28-1.36,2.51-2.7,3.77-4.09Z" transform="translate(-288.62 -44.19)"/><path class="cls-1" d="M452.14,79.62A2.72,2.72,0,0,1,455,82.23a2.41,2.41,0,0,1-.48,1.47c-2.17,2.6-4.38,5.15-6.58,7.71-1.26,1.47-2.81,1.72-4.13.69a3,3,0,0,1-.43-4.43c1.54-1.86,3.18-3.64,4.78-5.45.44-.5.87-1,1.32-1.47a3.29,3.29,0,0,1,2.7-1.13Z" transform="translate(-288.62 -44.19)"/><path class="cls-1" d="M441.18,88.12a3.12,3.12,0,0,1-2.6-4.71,20.67,20.67,0,0,1,2.6-3.4c1.2-1.38,2.48-2.7,3.74-4a3.15,3.15,0,0,1,3.52-.56,3,3,0,0,1,1.42,3.24,2.25,2.25,0,0,1-.48.85c-2.33,2.67-4.66,5.34-7,8a4.28,4.28,0,0,1-1.17.63Z" transform="translate(-288.62 -44.19)"/><path class="cls-1" d="M491.66,385.68a1.65,1.65,0,0,0-1.27-.6h-6.23c-1.54-4.05-3.54-8-5.82-9.53-7.87-5.18-28.76-5.18-36.63,0-2.28,1.5-4.27,5.48-5.82,9.53h-6.23a1.64,1.64,0,0,0-1.6,2l.92,4.47a1.64,1.64,0,0,0,1.6,1.31h1.85a11.07,11.07,0,0,0-2.66,7.23,10.83,10.83,0,0,0,3.42,8.13l.07.06v6.25a2.46,2.46,0,0,0,2.46,2.46h5.75a2.46,2.46,0,0,0,2.46-2.46V412h32.19v2.51a2.46,2.46,0,0,0,2.46,2.46h5.75a2.46,2.46,0,0,0,2.46-2.46v-6.13a11.24,11.24,0,0,0,.72-15.55h2a1.63,1.63,0,0,0,1.6-1.31L492,387A1.65,1.65,0,0,0,491.66,385.68Zm-47.25-6c6.28-4.13,25-4.13,31.23,0,1.22.8,2.79,4,4.22,8H440.19C441.62,383.68,443.19,380.45,444.41,379.65Zm-7.35,21a4.84,4.84,0,1,1,4.84,4.84A4.83,4.83,0,0,1,437.06,400.67Zm41.16,4.84a4.83,4.83,0,1,1,4.84-4.84A4.84,4.84,0,0,1,478.22,405.5Z" transform="translate(-288.62 -44.19)"/><path class="cls-1" d="M644.37,291.12h-4.49v-4.64a2.15,2.15,0,0,0-1.83-2.12,33,33,0,0,0-9.82.3c-5.87,1.07-10.55,3.7-13.72,7.68-3.17-4-7.85-6.61-13.72-7.68a33,33,0,0,0-9.82-.3,2.15,2.15,0,0,0-1.83,2.12v4.64h-4.49a2.15,2.15,0,0,0-2.15,2.15v40.47a2.15,2.15,0,0,0,2.85,2c.16-.06,16.25-5.55,28.25-.07a2.15,2.15,0,0,0,1.78,0c12-5.46,28.09,0,28.25.07a2.15,2.15,0,0,0,2.85-2V293.27A2.15,2.15,0,0,0,644.37,291.12Zm-57.56,39.74V295.41h2.34V324a2.15,2.15,0,0,0,2.46,2.12c.12,0,9.45-1.3,16.26,3.38C599.48,328.08,591.08,329.74,586.81,330.86Zm25.56-3.28a23.14,23.14,0,0,0-11.57-5.39,33.7,33.7,0,0,0-6-.53l-1.36,0V288.45h0c4.13-.19,14.17.26,18.92,8.32Zm4.3-30.82c4.74-8,14.79-8.49,18.92-8.31v33.23a34,34,0,0,0-7.35.5,23.14,23.14,0,0,0-11.57,5.39V296.76Zm4.48,32.76c6.82-4.68,16.15-3.4,16.27-3.38a2.15,2.15,0,0,0,2.47-2.12v-28.6h2.34v35.45C638,329.74,629.55,328.08,621.15,329.52Z" transform="translate(-288.62 -44.19)"/><path class="cls-1" d="M344.33,333.85,329.59,310V291.95h1.3a1.67,1.67,0,0,0,1.67-1.67v-.18a1.67,1.67,0,0,0-1.67-1.67H315.11a1.67,1.67,0,0,0-1.67,1.67v.18a1.67,1.67,0,0,0,1.67,1.67h1.3V310l-14.74,23.81a5.13,5.13,0,0,0-.13,5.26,5.75,5.75,0,0,0,5.05,2.89h32.82a5.75,5.75,0,0,0,5.05-2.89A5.13,5.13,0,0,0,344.33,333.85ZM319,310.77V293.24h8v17.53l5.24,8.47H313.74Z" transform="translate(-288.62 -44.19)"/></svg>