<svg id="图层_1" data-name="图层 1" xmlns="http://www.w3.org/2000/svg" viewBox="0 0 206.86 26.44"><defs><style>.cls-1{fill:#bc2638;}</style></defs><title>美国硅谷（logo转曲）RED</title><path class="cls-1" d="M36.53,11.82a.32.32,0,0,1,.36.36v4a.32.32,0,0,1-.36.36h-11a1.48,1.48,0,0,0-.76.27,3.9,3.9,0,0,0-.81.68,5.43,5.43,0,0,0-.65.86,1.58,1.58,0,0,0-.27.77v9.39a5.27,5.27,0,0,0,.9,3.2,2.74,2.74,0,0,0,2.3,1.22h4.39a2.74,2.74,0,0,0,1.2-.25A2.93,2.93,0,0,0,32.7,32a2.38,2.38,0,0,0,.5-.77,2.05,2.05,0,0,0,.16-.74V27.17a.32.32,0,0,0-.36-.36H27.14a.32.32,0,0,1-.36-.36v-4a.32.32,0,0,1,.36-.36H38.33a.32.32,0,0,1,.36.36v8.09a7,7,0,0,1-.38,2,7.2,7.2,0,0,1-1.24,2.3,7.49,7.49,0,0,1-2.28,1.89,7.2,7.2,0,0,1-3.54.79H25a5.86,5.86,0,0,1-3.06-.79,7.8,7.8,0,0,1-2.25-2,8.79,8.79,0,0,1-1.38-2.66,9.21,9.21,0,0,1-.47-2.82V19.12a6.63,6.63,0,0,1,.52-2.48,8.84,8.84,0,0,1,1.42-2.37,7.7,7.7,0,0,1,2.09-1.76,5,5,0,0,1,2.55-.68H36.53Z" transform="translate(-17.83 -11.82)"/><path class="cls-1" d="M60.78,26.88a10.88,10.88,0,0,1-2.39-.29,5.7,5.7,0,0,1-2.32-1.11,4.5,4.5,0,0,1-1-1.2,7.84,7.84,0,0,1-.68-1.51,9.76,9.76,0,0,1-.4-1.65,11.28,11.28,0,0,1-.13-1.67v-.68a3,3,0,0,1,.07-.65,6.69,6.69,0,0,1,2.34-4.85,8.67,8.67,0,0,1,1.51-1,3.81,3.81,0,0,1,1.76-.47h11.9a.32.32,0,0,1,.36.36v4a.32.32,0,0,1-.36.36H61a1.23,1.23,0,0,0-.92.45,3.32,3.32,0,0,0-.59.84,2.05,2.05,0,0,0-.22.72q0,.36,0,.72a10.07,10.07,0,0,0,.07,1.19,1.88,1.88,0,0,0,.5,1.08,1.74,1.74,0,0,0,1.1.47,14.92,14.92,0,0,0,1.53.07h4a9.66,9.66,0,0,1,2.34.31A5.7,5.7,0,0,1,71.1,23.5a4.44,4.44,0,0,1,1,1.22,8.22,8.22,0,0,1,.68,1.55A9,9,0,0,1,73.18,28a14.5,14.5,0,0,1,.11,1.73v.76a2.53,2.53,0,0,1-.07.61,7.22,7.22,0,0,1-2.3,5,9.76,9.76,0,0,1-1.49,1,3.48,3.48,0,0,1-1.67.49H54.67a.32.32,0,0,1-.36-.36v-4a.32.32,0,0,1,.36-.36H66.24a1.15,1.15,0,0,0,.93-.52,4.48,4.48,0,0,0,.58-1,2.42,2.42,0,0,0,.22-.76q0-.36,0-.76a10.65,10.65,0,0,0-.07-1.2,2.08,2.08,0,0,0-.5-1.13,2,2,0,0,0-1-.56,6.68,6.68,0,0,0-1.56-.16Z" transform="translate(-17.83 -11.82)"/><path class="cls-1" d="M87.75,18.86h3.67a.32.32,0,0,1,.36.36V33.39a3,3,0,0,1-.7,2,5.4,5.4,0,0,1-1.83,1.37,10,10,0,0,1-2.55.79,16.4,16.4,0,0,1-2.86.25,16.59,16.59,0,0,1-2.89-.25,9.66,9.66,0,0,1-2.54-.79,5.44,5.44,0,0,1-1.82-1.37,3,3,0,0,1-.7-2V19.22a.32.32,0,0,1,.36-.36h3.67a.32.32,0,0,1,.36.36V31.84a.84.84,0,0,0,.31.61,2.79,2.79,0,0,0,.79.5,4.69,4.69,0,0,0,1.13.32,8.08,8.08,0,0,0,1.33.11,7.77,7.77,0,0,0,1.31-.11A5,5,0,0,0,86.27,33a2.75,2.75,0,0,0,.81-.5.84.84,0,0,0,.31-.61V19.22A.32.32,0,0,1,87.75,18.86Z" transform="translate(-17.83 -11.82)"/><path class="cls-1" d="M94.65,21a2,2,0,0,1,.7-1.53,2.21,2.21,0,0,1,1.49-.63h7.44a3.55,3.55,0,0,1,1.73.43,5.2,5.2,0,0,1,1.15.79l.41.41c.16.16.26.23.31.23s.11,0,.2-.13l.31-.34a5.24,5.24,0,0,1,.45-.47,2.46,2.46,0,0,1,.67-.43,3.54,3.54,0,0,1,1.46-.45l1-.05h2.55a6.43,6.43,0,0,1,2.7.56,7.31,7.31,0,0,1,2.1,1.42,6.43,6.43,0,0,1,1.37,1.92,5,5,0,0,1,.49,2.07V37.24a.32.32,0,0,1-.36.36h-3.63q-.4,0-.4-.36V25.3a2.07,2.07,0,0,0-.25-1,2.84,2.84,0,0,0-.63-.77A2.64,2.64,0,0,0,115,23a2.5,2.5,0,0,0-.85-.16H111.8a2.08,2.08,0,0,0-1.28.49,1.68,1.68,0,0,0-.63,1.42V37.24a.32.32,0,0,1-.36.36h-3.67a.32.32,0,0,1-.36-.36V24.76a1.71,1.71,0,0,0-.7-1.31,2.32,2.32,0,0,0-1.53-.59H100a.83.83,0,0,0-.67.32,1.14,1.14,0,0,0-.27.76v13.3a.32.32,0,0,1-.36.36H95a.32.32,0,0,1-.36-.36Z" transform="translate(-17.83 -11.82)"/><path class="cls-1" d="M124,21a2,2,0,0,1,.7-1.53,2.21,2.21,0,0,1,1.49-.63h7.44a3.55,3.55,0,0,1,1.73.43,5.2,5.2,0,0,1,1.15.79l.41.41c.16.16.26.23.31.23s.11,0,.2-.13l.31-.34a5.24,5.24,0,0,1,.45-.47,2.46,2.46,0,0,1,.67-.43,3.54,3.54,0,0,1,1.46-.45l1-.05h2.55a6.43,6.43,0,0,1,2.7.56,7.31,7.31,0,0,1,2.1,1.42A6.43,6.43,0,0,1,150,22.77a5,5,0,0,1,.49,2.07V37.24a.32.32,0,0,1-.36.36h-3.63q-.4,0-.4-.36V25.3a2.07,2.07,0,0,0-.25-1,2.84,2.84,0,0,0-.63-.77,2.64,2.64,0,0,0-.83-.49,2.5,2.5,0,0,0-.85-.16h-2.37a2.08,2.08,0,0,0-1.28.49,1.68,1.68,0,0,0-.63,1.42V37.24a.32.32,0,0,1-.36.36h-3.67a.32.32,0,0,1-.36-.36V24.76a1.71,1.71,0,0,0-.7-1.31,2.32,2.32,0,0,0-1.53-.59h-3.31a.83.83,0,0,0-.67.32,1.14,1.14,0,0,0-.27.76v13.3a.32.32,0,0,1-.36.36h-3.67a.32.32,0,0,1-.36-.36Z" transform="translate(-17.83 -11.82)"/><path class="cls-1" d="M153.69,11.82h3.67a.32.32,0,0,1,.36.36v3.67a.32.32,0,0,1-.36.36h-3.67a.32.32,0,0,1-.36-.36V12.18A.32.32,0,0,1,153.69,11.82Zm-.36,7.41a.32.32,0,0,1,.36-.36h3.67a.32.32,0,0,1,.36.36v18a.32.32,0,0,1-.36.36h-3.67a.32.32,0,0,1-.36-.36Z" transform="translate(-17.83 -11.82)"/><path class="cls-1" d="M166.85,32.85a.32.32,0,0,0,.36.36h3a.31.31,0,0,1,.29.36v3.67a.32.32,0,0,1-.36.36h-4.53a3.21,3.21,0,0,1-2.27-.83,2.56,2.56,0,0,1-.9-1.94V23.61a.32.32,0,0,0-.36-.36H160.2a.32.32,0,0,1-.36-.36V19.22a.32.32,0,0,1,.36-.36h1.91a.32.32,0,0,0,.36-.36V12.22a.32.32,0,0,1,.36-.36h3.67a.32.32,0,0,1,.36.36V18.5a.32.32,0,0,0,.36.36h2.95a.32.32,0,0,1,.36.36v3.67a.32.32,0,0,1-.36.36h-2.95a.32.32,0,0,0-.36.36Z" transform="translate(-17.83 -11.82)"/><rect class="cls-1" x="23.55" y="12.11" width="11.33" height="4.3" rx="1.3" ry="1.3"/><path class="cls-1" d="M175.34,31.48a1.56,1.56,0,0,1-1.31-.56,2.46,2.46,0,0,1-.44-1.61v-.18H174v.18a2.79,2.79,0,0,0,.13,1,1.37,1.37,0,0,0,.33.54,1,1,0,0,0,.44.24,2.13,2.13,0,0,0,.46.05,1.22,1.22,0,0,0,1-.46,2,2,0,0,0,.36-1.27,1.62,1.62,0,0,0-.15-.74,1.73,1.73,0,0,0-.37-.49,1.84,1.84,0,0,0-.44-.3l-.38-.17-.21-.09-.45-.21a2.16,2.16,0,0,1-.52-.39,2.31,2.31,0,0,1-.43-.62,2,2,0,0,1-.18-.91,2.56,2.56,0,0,1,.42-1.52,1.56,1.56,0,0,1,1.33-.66,1.6,1.6,0,0,1,1.33.57,2.53,2.53,0,0,1,.44,1.61v.19h-.39v-.19a2.21,2.21,0,0,0-.35-1.37,1.23,1.23,0,0,0-1-.41,1.16,1.16,0,0,0-1,.5,2.13,2.13,0,0,0-.37,1.29,1.69,1.69,0,0,0,.15.74,1.76,1.76,0,0,0,.36.51,1.92,1.92,0,0,0,.44.33l.41.19.19.09.43.19a2.1,2.1,0,0,1,.52.36,2.17,2.17,0,0,1,.44.6,2,2,0,0,1,.19.9,2.37,2.37,0,0,1-.44,1.48A1.57,1.57,0,0,1,175.34,31.48Z" transform="translate(-17.83 -11.82)"/><path class="cls-1" d="M178,31.5V23.3h.38V31.5Z" transform="translate(-17.83 -11.82)"/><path class="cls-1" d="M179.07,31.5V23.3h.39v7.82h2.75v.38Z" transform="translate(-17.83 -11.82)"/><path class="cls-1" d="M182.89,31.5V23.3h.38V31.5Z" transform="translate(-17.83 -11.82)"/><path class="cls-1" d="M185.78,31.5a2.31,2.31,0,0,1-.61-.08,1.32,1.32,0,0,1-.57-.33,1.74,1.74,0,0,1-.41-.66,3.18,3.18,0,0,1-.16-1.1V25.46a3.19,3.19,0,0,1,.16-1.09,1.68,1.68,0,0,1,.41-.66,1.34,1.34,0,0,1,.57-.32,2.31,2.31,0,0,1,.61-.08,2.28,2.28,0,0,1,.6.08,1.36,1.36,0,0,1,.57.32,1.69,1.69,0,0,1,.41.66,3.19,3.19,0,0,1,.16,1.09v.19h-.39v-.19a2.19,2.19,0,0,0-.34-1.36,1.43,1.43,0,0,0-2,0,2.18,2.18,0,0,0-.34,1.36v3.85a2.18,2.18,0,0,0,.35,1.37,1.19,1.19,0,0,0,1,.43,1.24,1.24,0,0,0,1-.43,2.27,2.27,0,0,0,.34-1.37v-.19h.39v.19a3.18,3.18,0,0,1-.16,1.1,1.75,1.75,0,0,1-.41.66,1.33,1.33,0,0,1-.57.33A2.28,2.28,0,0,1,185.78,31.5Z" transform="translate(-17.83 -11.82)"/><path class="cls-1" d="M190,31.5a2.27,2.27,0,0,1-.6-.08,1.32,1.32,0,0,1-.57-.33,1.74,1.74,0,0,1-.41-.66,3.18,3.18,0,0,1-.16-1.1V25.46a2.62,2.62,0,0,1,.42-1.61A1.59,1.59,0,0,1,190,23.3a1.57,1.57,0,0,1,1.31.56,2.53,2.53,0,0,1,.44,1.61v3.85a3.18,3.18,0,0,1-.16,1.1,1.75,1.75,0,0,1-.41.66,1.33,1.33,0,0,1-.57.33A2.32,2.32,0,0,1,190,31.5Zm0-7.82a1.17,1.17,0,0,0-1,.42,2.19,2.19,0,0,0-.35,1.36v3.85a2.21,2.21,0,0,0,.35,1.37,1.19,1.19,0,0,0,1,.43,1.25,1.25,0,0,0,1-.43,2.21,2.21,0,0,0,.34-1.37V25.46A2.19,2.19,0,0,0,191,24.1,1.23,1.23,0,0,0,190,23.68Z" transform="translate(-17.83 -11.82)"/><path class="cls-1" d="M192.94,31.5h-.39V23.3h.33l2.82,7v-7h.39V31.5h-.32l-2.83-7Z" transform="translate(-17.83 -11.82)"/><path class="cls-1" d="M203.78,23.29l-2.05,8.2h-.29l-2.05-8.2h.39l1.81,7.22,1.8-7.22Z" transform="translate(-17.83 -11.82)"/><path class="cls-1" d="M204.76,31.5h-.39l.64-2.84v0l1.24-5.31h.3l1.87,8.19H208l-.56-2.5h-2.16Zm1.64-7.16-1,4.28h2Z" transform="translate(-17.83 -11.82)"/><path class="cls-1" d="M209.06,31.5V23.3h.39v7.82h2.75v.38Z" transform="translate(-17.83 -11.82)"/><path class="cls-1" d="M212.65,31.5V23.3H213v7.82h2.75v.38Z" transform="translate(-17.83 -11.82)"/><path class="cls-1" d="M216.69,23.68V27.2h2.57v.38h-2.57v3.54h2.57v.38h-2.94V23.3h2.94v.38Z" transform="translate(-17.83 -11.82)"/><path class="cls-1" d="M224.69,23.3l-2.27,4.15v4H222v-4l-2.29-4.15h.44l2,3.7,2-3.7Z" transform="translate(-17.83 -11.82)"/><path class="cls-1" d="M174.75,32.72c.73,0,1.11.44,1.11,1.21v.15h-.71v-.2c0-.34-.14-.47-.38-.47s-.38.13-.38.47c0,1,1.47,1.17,1.47,2.54,0,.77-.38,1.21-1.12,1.21s-1.12-.44-1.12-1.21v-.29h.71v.34c0,.34.15.47.39.47s.39-.12.39-.47c0-1-1.47-1.17-1.47-2.54C173.64,33.16,174,32.72,174.75,32.72Z" transform="translate(-17.83 -11.82)"/><path class="cls-1" d="M177.05,34.8h1v.68h-1v1.4h1.3v.69H176.3v-4.8h2.05v.69h-1.3Z" transform="translate(-17.83 -11.82)"/><path class="cls-1" d="M181.05,34v.62c0,.77-.37,1.19-1.12,1.19h-.36v1.8h-.75v-4.8h1.11C180.68,32.78,181.05,33.2,181.05,34Zm-1.48-.5v1.62h.36c.24,0,.37-.11.37-.45v-.72c0-.34-.13-.45-.37-.45Z" transform="translate(-17.83 -11.82)"/><path class="cls-1" d="M183.57,33.41c-.24,0-.39.13-.39.47v.51h-.71v-.47c0-.77.38-1.21,1.12-1.21s1.12.44,1.12,1.21c0,1.58-1.64,2.12-1.49,3h1.43v.69h-2.18V37c0-1.41,1.49-1.64,1.49-3C184,33.53,183.81,33.41,183.57,33.41Z" transform="translate(-17.83 -11.82)"/><path class="cls-1" d="M187.39,32.78v.66l-1.11,4.14h-.75l1.1-4.11h-1.5v-.69Z" transform="translate(-17.83 -11.82)"/><path class="cls-1" d="M187.85,34.83h1.37v.68h-1.37Z" transform="translate(-17.83 -11.82)"/><path class="cls-1" d="M190.84,33.41c-.24,0-.39.13-.39.47v.51h-.71v-.47c0-.77.38-1.21,1.12-1.21s1.12.44,1.12,1.21c0,1.58-1.64,2.12-1.49,3h1.43v.69h-2.18V37c0-1.41,1.49-1.64,1.49-3C191.23,33.53,191.08,33.41,190.84,33.41Z" transform="translate(-17.83 -11.82)"/><path class="cls-1" d="M193.53,37.63a1.08,1.08,0,0,1-1.18-1.21V36a1.06,1.06,0,0,1,.47-1,1,1,0,0,1-.47-1v-.15a1.18,1.18,0,1,1,2.36,0v.15a1,1,0,0,1-.47,1,1.06,1.06,0,0,1,.47,1v.38A1.08,1.08,0,0,1,193.53,37.63Zm-.42-3.41c0,.38.18.51.42.51s.42-.12.42-.51V34c0-.43-.18-.55-.42-.55s-.42.12-.42.55Zm.42,2.72c.24,0,.42-.12.42-.54V36c0-.38-.16-.54-.42-.54s-.42.16-.42.54v.45C193.1,36.83,193.29,36.94,193.53,36.94Z" transform="translate(-17.83 -11.82)"/><path class="cls-1" d="M195.16,37.57v-.73h.73v.65l-.33.76h-.31l.2-.69Z" transform="translate(-17.83 -11.82)"/><path class="cls-1" d="M198.59,33.41c-.24,0-.39.13-.39.47v.51h-.71v-.47c0-.77.38-1.21,1.12-1.21s1.12.44,1.12,1.21c0,1.58-1.64,2.12-1.49,3h1.43v.69h-2.18V37c0-1.41,1.49-1.64,1.49-3C199,33.53,198.83,33.41,198.59,33.41Z" transform="translate(-17.83 -11.82)"/><path class="cls-1" d="M200.14,33.93a1.15,1.15,0,1,1,2.29,0v2.49a1.15,1.15,0,1,1-2.29,0Zm.75,2.54c0,.34.15.47.39.47s.39-.13.39-.47V33.88c0-.34-.15-.47-.39-.47s-.39.13-.39.47Z" transform="translate(-17.83 -11.82)"/><path class="cls-1" d="M203.38,33.38a.75.75,0,0,0,.83-.6h.51v4.8H204V33.92h-.58Z" transform="translate(-17.83 -11.82)"/><path class="cls-1" d="M205.58,34c0-.81.37-1.25,1.15-1.25s1.12.44,1.12,1.21v.12h-.71v-.17c0-.34-.15-.47-.39-.47s-.42.13-.42.59v.88a.72.72,0,0,1,.7-.42c.55,0,.84.39.84,1.1v.88a1.15,1.15,0,1,1-2.29,0Zm.75,1.64v.86c0,.34.15.47.39.47s.39-.12.39-.47v-.86c0-.34-.15-.47-.39-.47S206.33,35.27,206.33,35.61Z" transform="translate(-17.83 -11.82)"/><path class="cls-1" d="M178.77,21.95c.62-2,3.15-3.55,6.19-3.55s5.57,1.52,6.19,3.55h5.06c-.67-4-5.45-7.11-11.25-7.11s-10.58,3.11-11.25,7.11Z" transform="translate(-17.83 -11.82)"/></svg>