<svg id="Layer_1" data-name="Layer 1" xmlns="http://www.w3.org/2000/svg" viewBox="0 0 625 152.35"><defs><style>.cls-1{fill:#a1222d;}.cls-2{fill:#777;}</style></defs><title>g summit</title><path class="cls-1" d="M138.55,226c1,0,1.45.29,1.45,1.27v16.19c0,1-.47,1.53-1.45,1.53h-45a6,6,0,0,0-3.09,1.07,15.88,15.88,0,0,0-3.31,2.78,23.51,23.51,0,0,0-2.82,3.53A7,7,0,0,0,83,255.54V294A21.51,21.51,0,0,0,86.85,307a11.49,11.49,0,0,0,9.6,5h18a11.21,11.21,0,0,0,4.93-1,12,12,0,0,0,3.53-2.48,10.43,10.43,0,0,0,2.26-3.16,9.13,9.13,0,0,0,.86-3V288.66a1.77,1.77,0,0,0-1.87-1.66h-24c-1,0-1.13-.3-1.13-1.28V269.53c0-1,.15-1.53,1.13-1.53h45.79c1,0,1.08.55,1.08,1.53v33.12a27.64,27.64,0,0,1-1.35,8.32,29.15,29.15,0,0,1-5,9.42,30,30,0,0,1-9.3,7.55c-3.88,2.16-8.66,3.06-14.45,3.06H91.3a23.91,23.91,0,0,1-12.51-3.06,31.62,31.62,0,0,1-9.2-8.08A35.76,35.76,0,0,1,63.91,309,37.44,37.44,0,0,1,62,297.5V255.69a27.16,27.16,0,0,1,2.13-10.16A36.2,36.2,0,0,1,70,235.81a31.15,31.15,0,0,1,8.54-7.11A20.52,20.52,0,0,1,88.94,226h49.61Z" transform="translate(-62 -226)"/><path class="cls-1" d="M237.84,287a43.56,43.56,0,0,1-9.79-.93,23.1,23.1,0,0,1-9.5-4.44,18.17,18.17,0,0,1-4.2-4.87,31.84,31.84,0,0,1-2.8-6.15,40.4,40.4,0,0,1-1.83-6.76A46.57,46.57,0,0,1,209,257v-2.8a12.52,12.52,0,0,1,.51-2.65c.69-8.54,4-15.16,9.68-19.87a36.09,36.09,0,0,1,6.24-3.88,15.62,15.62,0,0,1,7.27-1.81h48.73c1,0,1.58.29,1.58,1.27v16.19a1.43,1.43,0,0,1-1.58,1.53H238.87a5,5,0,0,0-3.75,1.81,13.53,13.53,0,0,0-2.43,3.44,8.37,8.37,0,0,0-.88,2.94,29.41,29.41,0,0,0-.15,2.94A41.19,41.19,0,0,0,232,261,7.69,7.69,0,0,0,234,265.4a7.29,7.29,0,0,0,4.49,2.11,58.54,58.54,0,0,0,6.26.49h16.49a39,39,0,0,1,9.57,1.06,23.12,23.12,0,0,1,9.28,4.69,18,18,0,0,1,4.2,5,33.43,33.43,0,0,1,2.8,6.31,36.81,36.81,0,0,1,1.51,7.05,58.91,58.91,0,0,1,.4,7.05v3.09a10.37,10.37,0,0,1-.26,2.5q-1.18,13.4-9.4,20.61a39.84,39.84,0,0,1-6.1,3.87A13.87,13.87,0,0,1,266.4,331H212.81c-1,0-1.81-.13-1.81-1.11V313.69a1.74,1.74,0,0,1,1.81-1.69h47.4a4.59,4.59,0,0,0,3.83-2,18.11,18.11,0,0,0,2.36-3.85,9.74,9.74,0,0,0,.88-3.06c.1-1,.15-2,.15-3.08a43.5,43.5,0,0,0-.29-4.93,8.49,8.49,0,0,0-2.06-4.63,8.35,8.35,0,0,0-4.2-2.52,26.49,26.49,0,0,0-6.4-.9Z" transform="translate(-62 -226)"/><path class="cls-1" d="M348.25,255h15c1,0,1.73.15,1.73,1.13v58a12.21,12.21,0,0,1-3,8.1,22.38,22.38,0,0,1-7.57,5.59,41,41,0,0,1-10.48,3.24,67.32,67.32,0,0,1-11.72,1,68,68,0,0,1-11.86-1A39.57,39.57,0,0,1,310,327.83a21.61,21.61,0,0,1-7.27-5.59,12,12,0,0,1-2.71-8.1v-58c0-1,.16-1.13,1.14-1.13h15c1,0,1.84.15,1.84,1.13V307.8a3.2,3.2,0,0,0,1.07,2.5,10.88,10.88,0,0,0,3.15,2.06,18.8,18.8,0,0,0,4.59,1.32,32.81,32.81,0,0,0,5.42.44,31.66,31.66,0,0,0,5.36-.44,20.59,20.59,0,0,0,4.63-1.32,11.91,11.91,0,0,0,3.42-2.06,3.59,3.59,0,0,0,1.36-2.5V256.13C347,255.15,347.27,255,348.25,255Z" transform="translate(-62 -226)"/><path class="cls-1" d="M377,263.49a7.54,7.54,0,0,1,2.63-6.09,8.27,8.27,0,0,1,5.87-2.4H416a14.4,14.4,0,0,1,7.07,1.59,21.51,21.51,0,0,1,4.71,3.15c.49.49,1.05,1,1.69,1.65s1.05.94,1.25.94.46-.18.81-.53.76-.82,1.25-1.4a21.47,21.47,0,0,1,1.84-1.92,10.09,10.09,0,0,1,2.72-1.77,14.19,14.19,0,0,1,6-1.67,36.42,36.42,0,0,1,3.9,0h10.45a26.25,26.25,0,0,1,11,2.11,29.73,29.73,0,0,1,8.61,5.73,26.37,26.37,0,0,1,5.66,7.83A20.21,20.21,0,0,1,485,279.1v50.79c0,1-.62,1.11-1.6,1.11H468.53c-1.08,0-1.53-.13-1.53-1.11V281a8.49,8.49,0,0,0-1.07-4.2,11.69,11.69,0,0,0-2.6-3.17,10.85,10.85,0,0,0-3.4-2,10.31,10.31,0,0,0-3.47-.66h-9.72a8.43,8.43,0,0,0-5.2,2A6.87,6.87,0,0,0,439,278.8v51.09c0,1-.55,1.11-1.53,1.11h-15c-1,0-1.45-.13-1.45-1.11V278.8a7,7,0,0,0-2.88-5.37,9.51,9.51,0,0,0-6.27-2.43H398.31a3.88,3.88,0,0,0-3,1.32,4.93,4.93,0,0,0-1.34,3.09v54.47c0,1,0,1.11-1,1.11H378c-1,0-1-.13-1-1.11Z" transform="translate(-62 -226)"/><path class="cls-1" d="M497,263.49a7.6,7.6,0,0,1,2.7-6.09,8.42,8.42,0,0,1,5.93-2.4h30.47a14.4,14.4,0,0,1,7.07,1.59,21.51,21.51,0,0,1,4.71,3.15c.49.49,1.05,1,1.69,1.65s1.05.94,1.25.94.46-.18.81-.53.76-.82,1.25-1.4a21.47,21.47,0,0,1,1.84-1.92,10.09,10.09,0,0,1,2.72-1.77,14.19,14.19,0,0,1,6-1.67,36.42,36.42,0,0,1,3.9,0h10.45a26.25,26.25,0,0,1,11,2.11,29.73,29.73,0,0,1,8.61,5.73,26.14,26.14,0,0,1,5.59,7.83,20.09,20.09,0,0,1,2,8.42v50.79c0,1-.49,1.11-1.47,1.11H588.66c-1.08,0-1.66-.13-1.66-1.11V281a8.45,8.45,0,0,0-1-4.2,11.58,11.58,0,0,0-2.57-3.17,10.78,10.78,0,0,0-3.38-2,10.22,10.22,0,0,0-3.45-.66h-9.72a8.6,8.6,0,0,0-5.26,2A6.92,6.92,0,0,0,559,278.8v51.09c0,1-.42,1.11-1.4,1.11h-15c-1,0-1.58-.13-1.58-1.11V278.8a6.93,6.93,0,0,0-2.82-5.37A9.35,9.35,0,0,0,532,271H518.44a3.06,3.06,0,0,0-2.53,1.32,4.53,4.53,0,0,0-.91,3.09v54.47c0,1-.88,1.11-1.86,1.11h-15c-1,0-1.12-.13-1.12-1.11Z" transform="translate(-62 -226)"/><path class="cls-1" d="M618.25,226h15c1,0,1.73.29,1.73,1.27v15a1.68,1.68,0,0,1-1.73,1.71h-15c-1,0-1.25-.73-1.25-1.71v-15C617,226.29,617.27,226,618.25,226ZM617,256.13c0-1,.27-1.13,1.25-1.13h15c1,0,1.73.15,1.73,1.13v73.76c0,1-.75,1.11-1.73,1.11h-15c-1,0-1.25-.13-1.25-1.11Z" transform="translate(-62 -226)"/><path class="cls-1" d="M672,311.93c0,1,.63,1.07,1.61,1.07H686c.78,0,1,1,1,1.87v15c0,1-.34,1.11-1.32,1.11H667.13c-3.73,0-6.91-.95-9.36-3.21S654,323.07,654,320V274.09c0-1-.32-1.09-1.3-1.09h-7.8a2,2,0,0,1-1.9-1.85v-15c0-1,.92-1.13,1.9-1.13h7.8c1,0,1.3-.83,1.3-1.82V227.44c0-1,.67-1.44,1.65-1.44h15c1,0,1.34.46,1.34,1.44v25.75a1.67,1.67,0,0,0,1.61,1.82h12.07c1,0,1.32.15,1.32,1.13v15c0,1-.34,1.85-1.32,1.85H673.61c-1,0-1.61.11-1.61,1.09Z" transform="translate(-62 -226)"/><rect class="cls-1" x="96" y="49" width="46" height="18" rx="5.31" ry="5.31"/><path class="cls-2" d="M70.27,346.84c4.71,0,7.13,2.82,7.13,7.75v1H72.83v-1.28c0-2.2-.88-3-2.42-3s-2.42.84-2.42,3,1,3.92,4.14,6.69c4,3.56,5.32,6.12,5.32,9.64,0,4.93-2.46,7.74-7.22,7.74S63,375.54,63,370.61v-1.89h4.58v2.2c0,2.2,1,3,2.51,3s2.51-.79,2.51-3-1-3.92-4.14-6.69c-4-3.56-5.32-6.12-5.32-9.64C63.14,349.66,65.56,346.84,70.27,346.84Z" transform="translate(-62 -226)"/><path class="cls-2" d="M88.36,360.18H95v4.4H88.36v9h8.36V378H83.52V347.2h13.2v4.4H88.36Z" transform="translate(-62 -226)"/><path class="cls-2" d="M117.35,354.81v4c0,4.93-2.38,7.61-7.22,7.61h-2.29V378H103V347.2h7.13C115,347.2,117.35,349.88,117.35,354.81Zm-9.51-3.21V362h2.29c1.54,0,2.38-.7,2.38-2.9V354.5c0-2.2-.84-2.91-2.38-2.91Z" transform="translate(-62 -226)"/><path class="cls-2" d="M121.49,347.2h15v4.4h-5.06V378h-4.84V351.6h-5.06Z" transform="translate(-62 -226)"/><path class="cls-2" d="M146.7,360.18h6.65v4.4H146.7v9h8.36V378h-13.2V347.2h13.2v4.4H146.7Z" transform="translate(-62 -226)"/><path class="cls-2" d="M171.56,369.07h.09l3.26-21.87h6.73V378h-4.58V355.91H177L173.72,378h-4.58l-3.52-21.78h-.09V378h-4.22V347.2H168Z" transform="translate(-62 -226)"/><path class="cls-2" d="M202.93,354.28v1.1c0,3.17-1,5.15-3.12,6.16v.09c2.6,1,3.61,3.3,3.61,6.56v2.51c0,4.75-2.51,7.3-7.35,7.3h-7.61V347.2h7.31C200.78,347.2,202.93,349.53,202.93,354.28Zm-9.64-2.68v8.14h1.89c1.8,0,2.9-.79,2.9-3.26v-1.72c0-2.2-.75-3.17-2.46-3.17Zm0,12.54v9.46h2.77c1.63,0,2.51-.75,2.51-3v-2.68c0-2.86-.92-3.74-3.12-3.74Z" transform="translate(-62 -226)"/><path class="cls-2" d="M214.46,360.18h6.65v4.4h-6.65v9h8.36V378h-13.2V347.2h13.2v4.4h-8.36Z" transform="translate(-62 -226)"/><path class="cls-2" d="M239.23,378a9.47,9.47,0,0,1-.44-3.78v-4.84c0-2.86-1-3.92-3.17-3.92H234V378h-4.84V347.2h7.31c5,0,7.17,2.33,7.17,7.08v2.42c0,3.17-1,5.19-3.17,6.21V363c2.42,1,3.21,3.3,3.21,6.51v4.75a9.07,9.07,0,0,0,.53,3.74ZM234,351.6v9.46h1.89c1.8,0,2.9-.79,2.9-3.26v-3c0-2.2-.75-3.17-2.46-3.17Z" transform="translate(-62 -226)"/><path class="cls-2" d="M267.3,351.24c-1.54,0-2.51.84-2.51,3v3.3h-4.58v-3c0-4.93,2.46-7.75,7.22-7.75s7.22,2.82,7.22,7.75c0,4.09-1.5,7.39-6,12.19-2.86,3.08-3.65,4.53-3.65,6.16a3.34,3.34,0,0,0,0,.66h9.15V378h-14v-3.78c0-3.43,1.23-6,4.84-9.81s4.75-6.34,4.75-9.64C269.81,352,268.84,351.24,267.3,351.24Z" transform="translate(-62 -226)"/><path class="cls-2" d="M295.16,347.2v4.22L288,378h-4.84l7.08-26.4h-9.64v-4.4Z" transform="translate(-62 -226)"/><path class="cls-2" d="M301.44,360.4h8.8v4.4h-8.8Z" transform="translate(-62 -226)"/><path class="cls-2" d="M323.93,351.24c-1.54,0-2.51.84-2.51,3v3.3h-4.58v-3c0-4.93,2.46-7.75,7.22-7.75s7.22,2.82,7.22,7.75c0,4.09-1.5,7.39-6,12.19-2.86,3.08-3.65,4.53-3.65,6.16a3.34,3.34,0,0,0,0,.66h9.15V378h-14v-3.78c0-3.43,1.23-6,4.84-9.81s4.75-6.34,4.75-9.64C326.44,352,325.47,351.24,323.93,351.24Z" transform="translate(-62 -226)"/><path class="cls-2" d="M344.52,378.35c-4.88,0-7.57-2.82-7.57-7.74v-2.42c0-2.95.88-5.19,3-6.38v-.09c-2-1.1-3-3.12-3-6.16v-1c0-4.93,2.68-7.75,7.57-7.75s7.57,2.82,7.57,7.75v1c0,3-1,5.06-3,6.16v.09c2.11,1.19,3,3.43,3,6.38v2.42C352.09,375.54,349.41,378.35,344.52,378.35Zm-2.73-21.87c0,2.46,1.14,3.26,2.73,3.26s2.73-.79,2.73-3.26v-1.72c0-2.77-1.19-3.52-2.73-3.52s-2.73.75-2.73,3.52ZM344.52,374c1.54,0,2.68-.75,2.73-3.48v-2.86c0-2.42-1-3.48-2.73-3.48s-2.73,1.06-2.73,3.48v2.86C341.79,373.2,343,374,344.52,374Z" transform="translate(-62 -226)"/><path class="cls-2" d="M368.19,360.4H377v4.4h-8.8Z" transform="translate(-62 -226)"/><path class="cls-2" d="M400.22,346.84c4.71,0,7.13,2.82,7.13,7.75v1h-4.58v-1.28c0-2.2-.88-3-2.42-3s-2.42.84-2.42,3,1,3.92,4.14,6.69c4,3.56,5.32,6.12,5.32,9.64,0,4.93-2.46,7.74-7.22,7.74s-7.22-2.82-7.22-7.74v-1.89h4.58v2.2c0,2.2,1,3,2.51,3s2.51-.79,2.51-3-1-3.92-4.14-6.69c-4-3.56-5.32-6.12-5.32-9.64C393.1,349.66,395.52,346.84,400.22,346.84Z" transform="translate(-62 -226)"/><path class="cls-2" d="M429.13,378h-4.88l-.84-5.59h-5.94l-.84,5.59h-4.44l4.93-30.8h7.09Zm-11-9.77h4.66l-2.29-15.58h-.09Z" transform="translate(-62 -226)"/><path class="cls-2" d="M439.08,355.69H439V378h-4.36V347.2h6.07l4.88,18.44h.09V347.2H450V378h-5Z" transform="translate(-62 -226)"/><path class="cls-2" d="M471.72,360.88H478v4.4h-6.25V378h-4.84V347.2h12.81v4.4h-8Z" transform="translate(-62 -226)"/><path class="cls-2" d="M495.44,378a9.48,9.48,0,0,1-.44-3.78v-4.84c0-2.86-1-3.92-3.17-3.92h-1.67V378h-4.84V347.2h7.3c5,0,7.17,2.33,7.17,7.08v2.42c0,3.17-1,5.19-3.17,6.21V363c2.42,1,3.21,3.3,3.21,6.51v4.75a9.07,9.07,0,0,0,.53,3.74Zm-5.28-26.4v9.46h1.89c1.8,0,2.9-.79,2.9-3.26v-3c0-2.2-.75-3.17-2.46-3.17Z" transform="translate(-62 -226)"/><path class="cls-2" d="M522,378h-4.88l-.84-5.59h-5.94l-.84,5.59H505L510,347.2H517Zm-11-9.77h4.67l-2.29-15.58h-.09Z" transform="translate(-62 -226)"/><path class="cls-2" d="M531.92,355.69h-.09V378h-4.36V347.2h6.07l4.88,18.44h.09V347.2h4.31V378h-5Z" transform="translate(-62 -226)"/><path class="cls-2" d="M563.64,366.51v4.09c0,4.93-2.46,7.74-7.22,7.74s-7.22-2.82-7.22-7.74v-16c0-4.93,2.46-7.75,7.22-7.75s7.22,2.82,7.22,7.75v3h-4.58v-3.3c0-2.2-1-3-2.51-3s-2.51.84-2.51,3v16.63c0,2.2,1,3,2.51,3s2.51-.79,2.51-3v-4.4Z" transform="translate(-62 -226)"/><path class="cls-2" d="M569.88,347.2h4.84V378h-4.84Z" transform="translate(-62 -226)"/><path class="cls-2" d="M588.06,346.84c4.71,0,7.13,2.82,7.13,7.75v1h-4.58v-1.28c0-2.2-.88-3-2.42-3s-2.42.84-2.42,3,1,3.92,4.14,6.69c4,3.56,5.33,6.12,5.33,9.64,0,4.93-2.46,7.74-7.22,7.74s-7.22-2.82-7.22-7.74v-1.89h4.58v2.2c0,2.2,1,3,2.51,3s2.51-.79,2.51-3-1-3.92-4.14-6.69c-4-3.56-5.32-6.12-5.32-9.64C580.93,349.66,583.35,346.84,588.06,346.84Z" transform="translate(-62 -226)"/><path class="cls-2" d="M615.34,366.51v4.09c0,4.93-2.46,7.74-7.22,7.74s-7.22-2.82-7.22-7.74v-16c0-4.93,2.46-7.75,7.22-7.75s7.22,2.82,7.22,7.75v3h-4.58v-3.3c0-2.2-1-3-2.51-3s-2.51.84-2.51,3v16.63c0,2.2,1,3,2.51,3s2.51-.79,2.51-3v-4.4Z" transform="translate(-62 -226)"/><path class="cls-2" d="M621.19,354.59c0-4.93,2.6-7.75,7.35-7.75s7.35,2.82,7.35,7.75v16c0,4.93-2.6,7.74-7.35,7.74s-7.35-2.82-7.35-7.74ZM626,370.92c0,2.2,1,3,2.51,3s2.51-.84,2.51-3V354.28c0-2.2-1-3-2.51-3s-2.51.84-2.51,3Z" transform="translate(-62 -226)"/></svg>