<svg id="Layer_1" data-name="Layer 1" xmlns="http://www.w3.org/2000/svg" viewBox="0 0 232.04 140.63"><defs><style>.cls-1{fill:#ccc;}</style></defs><title>icon-group</title><path class="cls-1" d="M539.81,264.52" transform="translate(-443.48 -155.37)"/><path class="cls-1" d="M540,276h-2.67c-2.13,0-4.33-1.23-4.33-3.38v-5.79c0-2.15,2.2-3.83,4.33-3.83h3l-.19,1c0,.46-.15.89-.15,1.35Zm-2.67-11c-1.11,0-2.33.7-2.33,1.83v5.79c0,1.13,1.22,1.38,2.33,1.38H538v-8.69c0-.18.35-.31.36-.31Z" transform="translate(-443.48 -155.37)"/><path class="cls-1" d="M583.83,276H580V265.31c0-.46.46-.89.43-1.35l.4-1h3c2.13,0,3.17,1.68,3.17,3.83v5.79C587,274.77,586,276,583.83,276ZM582,274h1.83c1.11,0,1.17-.25,1.17-1.38v-5.79c0-1.13-.05-1.83-1.17-1.83h-1s-.81.13-.81.31Z" transform="translate(-443.48 -155.37)"/><path class="cls-1" d="M583.65,262.79" transform="translate(-443.48 -155.37)"/><path class="cls-1" d="M580,286H566v-5c0-.11.8,0,.72,0H554.45c-.09,0-.45-.08-.45,0v5H540V264.52c0-.61.08-1.22.14-1.85a20.87,20.87,0,0,1,15.86-18v-1a8.14,8.14,0,0,1-2-4.93,6.49,6.49,0,0,1,6.47-6.41,6.17,6.17,0,0,1,6.08,6.41,5.26,5.26,0,0,1-2.54,4.93v1a19.7,19.7,0,0,1,15.86,18c.06.62.14,1.24.14,1.85Zm-10-3h6V264.52c0-.5.42-1,.38-1.53a16.31,16.31,0,0,0-14-14.95l-1.37-.2v-6.1l.91-.52a2.79,2.79,0,0,0,1.37-2.42,2.7,2.7,0,1,0-4.1,2.42l.82.52v6.1l-1.5.2a16.63,16.63,0,0,0-14.34,15c0,.52-.16,1-.16,1.53V283h6v-2c0-2.12,2.36-4,4.45-4h12.26c2.09,0,3.28,1.91,3.28,4Z" transform="translate(-443.48 -155.37)"/><path class="cls-1" d="M551.85,265.95a2.83,2.83,0,1,1-2.75,2.83,2.79,2.79,0,0,1,2.75-2.83m0-2.18a5,5,0,1,0,4.93,5,5,5,0,0,0-4.93-5Z" transform="translate(-443.48 -155.37)"/><path class="cls-1" d="M570,265.95a2.83,2.83,0,1,1-2.75,2.83,2.79,2.79,0,0,1,2.75-2.83m0-2.18a5,5,0,1,0,4.93,5,5,5,0,0,0-4.93-5Z" transform="translate(-443.48 -155.37)"/><path class="cls-1" d="M565.1,268.78" transform="translate(-443.48 -155.37)"/><path class="cls-1" d="M579,291v2H541v-2h38m2.62-4H539.55c-.92,0-1.55,1.4-1.55,2.34v5.76c0,.94.63.9,1.55.9h42.06c.92,0,1.38,0,1.38-.9v-5.76c0-.94-.58-2.34-1.5-2.34Z" transform="translate(-443.48 -155.37)"/><path class="cls-1" d="M581.62,287.64" transform="translate(-443.48 -155.37)"/><path class="cls-1" d="M647.53,244.22c-1.52-.15-3.06-.38-4.59-.41a66.81,66.81,0,0,0-11.82,1.26,3.29,3.29,0,0,0-2.71,2.05c-2.17,4.16-4.53,8.22-6.82,12.32a1.71,1.71,0,0,0-.29.91c.22,1.29.53,2.55.82,3.94.38-.29.67-.51,1-.72a3.18,3.18,0,0,1,4.71.59,2.58,2.58,0,0,1-.25,3.36q-2.84,3.08-5.72,6.14a3,3,0,0,1-3.69.45,2.78,2.78,0,0,1-1.25-3.3,5.28,5.28,0,0,1,.84-1.61c.67-.89,1.45-1.72,2.16-2.6a1.26,1.26,0,0,0,.26-.87c-.18-1-.43-1.92-.67-2.87a.78.78,0,0,0-.4-.47,18.23,18.23,0,0,1-2-.75c-1.32-.72-2.58-1.54-3.87-2.32a8.15,8.15,0,0,0-1.13-.57c-1-.41-1.26-.85-.87-1.85s1-2.24,1.51-3.33A115.78,115.78,0,0,1,620,240.83a14.85,14.85,0,0,1,1.55-1.92,1.73,1.73,0,0,1,2.73-.25c1.42,1.1,2.8,2.29,4.12,3.52a2.16,2.16,0,0,0,2.16.69,60,60,0,0,1,11.66-1.42c3.3,0,6.57.34,9.47,2.2a1.41,1.41,0,0,0,2-.5c1.6-2.05,3.21-4.11,4.9-6.1.67-.81,1.26-.78,2.07-.09l13.87,12a1.12,1.12,0,0,1,.06,1.83c-1.2,1.32-2.42,2.64-3.65,3.93a3.75,3.75,0,0,0-1.22,2.11,12.61,12.61,0,0,1-2.51,6.32,12.8,12.8,0,0,0,1.19,1c1.67,1,1.92,2.6,1.51,4.31a5.86,5.86,0,0,1-4.49,4.57c-.44.12-.59.31-.66.79-.4,2.7-1.48,5-4.12,6.2a1.1,1.1,0,0,0-.43.82,6.8,6.8,0,0,1-1.41,4,4.39,4.39,0,0,1-3.23,1.67c-.63,0-.82.29-1,.84a6.23,6.23,0,0,1-5.84,4.4,4.91,4.91,0,0,1-2.4-.85c-2.65-1.86-5.22-3.83-7.83-5.76l-.25-.15c-.51.56-1,1.14-1.55,1.69a3,3,0,0,1-4.88-.82,2.18,2.18,0,0,1,.31-2.61c1.82-2.07,3.65-4.12,5.37-6.26a2.91,2.91,0,0,1,3.91-.48,3,3,0,0,1,.72,4,22.69,22.69,0,0,1-1.74,2l-.6.67c.76.6,1.45,1.19,2.18,1.73,1.92,1.39,3.86,2.76,5.79,4.15a1.89,1.89,0,0,0,1.94.22,4.13,4.13,0,0,0,2.8-2.65.85.85,0,0,0-.26-1q-3.69-3-7.4-6c-.53-.41-1.07-.78-1-1.57s.5-1.08,1.14-.89a4.8,4.8,0,0,1,1.63.79c2.1,1.67,4.15,3.39,6.22,5.09.21.16.38.34.59.5a2.61,2.61,0,0,0,4.25-1.42c0-.18.09-.37.12-.54a2.42,2.42,0,0,0-1-2.8c-2.33-1.72-4.56-3.55-6.8-5.37a2.22,2.22,0,0,1-.79-1,1.42,1.42,0,0,1,.21-1.2,1.84,1.84,0,0,1,1.2-.22c.25,0,.48.26.7.44l7,5.64c1.2,1,1.7.92,2.68-.28a5.47,5.47,0,0,0,1.44-3.43,1.51,1.51,0,0,0-.45-1c-2.05-1.76-4.13-3.47-6.19-5.23a5.5,5.5,0,0,1-1.07-1.19.88.88,0,0,1,.21-1.26,1.56,1.56,0,0,1,1.22-.19,4.84,4.84,0,0,1,1.38,1c1.88,1.6,3.75,3.21,5.59,4.85a1.6,1.6,0,0,0,2.1.31,7,7,0,0,0,1.76-1.35,2.34,2.34,0,0,0-.35-3.67q-7.74-6.8-15.48-13.55a1.76,1.76,0,0,0-1.26-.37c-2.26.29-4.52.62-6.74,1a11.85,11.85,0,0,0-2.11.78,5.64,5.64,0,0,1-5.78-.82,1.82,1.82,0,0,1-.26-3.06c1-1,2.18-1.72,3.18-2.67a7.22,7.22,0,0,1,4.72-1.88c1.54-.12,3.06-.4,4.6-.6a.78.78,0,0,1,0-.21Zm-24.31-3.69A103.06,103.06,0,0,0,613.66,257l5.06,2.95c2.61-4.75,5.18-9.41,7.73-14.07.26-.48.81-1,.72-1.47s-.75-.84-1.17-1.23C625.14,242.29,624.25,241.47,623.22,240.52Zm49,9.4c-.5-.41-.94-.76-1.35-1.13-1.82-1.63-3.61-3.28-5.47-4.88-1.69-1.45-3.45-2.84-5.18-4.24-.16-.13-.59-.19-.67-.1-1.17,1.36-2.32,2.76-3.5,4.18L668.42,254c1.28-1.36,2.51-2.7,3.77-4.09Z" transform="translate(-443.48 -155.37)"/><path class="cls-1" d="M635.14,271.87a2.72,2.72,0,0,1,2.83,2.61,2.41,2.41,0,0,1-.48,1.47c-2.17,2.6-4.38,5.15-6.58,7.71-1.26,1.47-2.81,1.72-4.13.69a3,3,0,0,1-.43-4.43c1.54-1.86,3.18-3.64,4.78-5.45.44-.5.87-1,1.32-1.47a3.29,3.29,0,0,1,2.7-1.13Z" transform="translate(-443.48 -155.37)"/><path class="cls-1" d="M624.18,280.37a3.12,3.12,0,0,1-2.6-4.71,20.67,20.67,0,0,1,2.6-3.4c1.2-1.38,2.48-2.7,3.74-4a3.15,3.15,0,0,1,3.52-.56,3,3,0,0,1,1.42,3.24,2.25,2.25,0,0,1-.48.85c-2.33,2.67-4.66,5.34-7,8a4.28,4.28,0,0,1-1.17.63Z" transform="translate(-443.48 -155.37)"/><path class="cls-1" d="M507.11,255.47a1.65,1.65,0,0,0-1.27-.6h-6.23c-1.54-4.05-3.54-8-5.82-9.53-7.87-5.18-28.76-5.18-36.63,0-2.28,1.5-4.27,5.48-5.82,9.53h-6.23a1.64,1.64,0,0,0-1.6,2l.92,4.47a1.64,1.64,0,0,0,1.6,1.31h1.85a11.07,11.07,0,0,0-2.66,7.23,10.83,10.83,0,0,0,3.42,8.13l.07.06v6.25a2.46,2.46,0,0,0,2.46,2.46h5.75a2.46,2.46,0,0,0,2.46-2.46v-2.51h32.19v2.51a2.46,2.46,0,0,0,2.46,2.46h5.75a2.46,2.46,0,0,0,2.46-2.46v-6.13a11.24,11.24,0,0,0,.72-15.55h2a1.63,1.63,0,0,0,1.6-1.31l.92-4.47A1.65,1.65,0,0,0,507.11,255.47Zm-47.25-6c6.28-4.13,25-4.13,31.23,0,1.22.8,2.79,4,4.22,8H455.64C457.07,253.48,458.64,250.25,459.86,249.45Zm-7.35,21a4.84,4.84,0,1,1,4.84,4.84A4.83,4.83,0,0,1,452.51,270.46Zm41.16,4.84a4.83,4.83,0,1,1,4.84-4.84A4.84,4.84,0,0,1,493.67,275.3Z" transform="translate(-443.48 -155.37)"/><path class="cls-1" d="M673.37,168.49h-4.49v-4.64a2.15,2.15,0,0,0-1.83-2.12,33,33,0,0,0-9.82.3c-5.87,1.07-10.55,3.7-13.72,7.68-3.17-4-7.85-6.61-13.72-7.68a33,33,0,0,0-9.82-.3,2.15,2.15,0,0,0-1.83,2.12v4.64h-4.49a2.15,2.15,0,0,0-2.15,2.15V211.1a2.15,2.15,0,0,0,2.85,2c.16-.06,16.25-5.55,28.25-.07a2.15,2.15,0,0,0,1.78,0c12-5.46,28.09,0,28.25.07a2.15,2.15,0,0,0,2.85-2V170.63A2.15,2.15,0,0,0,673.37,168.49Zm-57.56,39.74V172.78h2.34v28.6a2.15,2.15,0,0,0,2.46,2.12c.12,0,9.45-1.3,16.26,3.38C628.48,205.45,620.08,207.11,615.81,208.23Zm25.56-3.28a23.14,23.14,0,0,0-11.57-5.39,33.7,33.7,0,0,0-6-.53l-1.36,0V165.81h0c4.13-.19,14.17.26,18.92,8.32Zm4.3-30.82c4.74-8,14.79-8.49,18.92-8.31v33.23a34,34,0,0,0-7.35.5,23.14,23.14,0,0,0-11.57,5.39V174.13Zm4.48,32.76c6.82-4.68,16.15-3.4,16.27-3.38a2.15,2.15,0,0,0,2.47-2.12v-28.6h2.34v35.45C667,207.11,658.55,205.45,650.15,206.89Z" transform="translate(-443.48 -155.37)"/><path class="cls-1" d="M585.72,209.63l-17.61-28.45V159.58h1.55a2,2,0,0,0,2-2v-.22a2,2,0,0,0-2-2H550.81a2,2,0,0,0-2,2v.22a2,2,0,0,0,2,2h1.55v21.61l-17.61,28.45a6.13,6.13,0,0,0-.15,6.29,6.87,6.87,0,0,0,6,3.45h39.21a6.87,6.87,0,0,0,6-3.45A6.13,6.13,0,0,0,585.72,209.63Zm-30.28-27.57V161.12H565v20.94l6.26,10.11H549.18Z" transform="translate(-443.48 -155.37)"/><path class="cls-1" d="M475.48,167.37a18,18,0,0,0-8,34v10a4,4,0,0,0,4,4,4,4,0,1,0,8,0,4,4,0,0,0,4-4v-10a18,18,0,0,0-8-34Zm4,44h-8v-4h8Zm2.21-13.53-2.21,1.11v4.42h-8v-4.42l-2.21-1.11a14,14,0,1,1,12.42,0Zm-8.21-34.47v-6a2,2,0,0,1,4,0v6a2,2,0,1,1-4,0Zm19.32,12a2,2,0,0,1,.73-2.73l5.2-3a2,2,0,0,1,2,3.47l-5.2,3a2,2,0,0,1-1,.27A2,2,0,0,1,492.8,175.37Zm-8.05-10.05,3-5.2a2,2,0,1,1,3.46,2l-3,5.2a2,2,0,0,1-3.46-2Zm-26.59,30.05a2,2,0,0,1-.73,2.73l-5.2,3a2,2,0,0,1-1,.27,2,2,0,0,1-1-3.73l5.2-3A2,2,0,0,1,458.16,195.37Zm-4.68-8h-6a2,2,0,1,1,0-4h6a2,2,0,0,1,0,4Zm-4-17a2,2,0,0,1,2.73-.73l5.2,3a2,2,0,1,1-2,3.46l-5.2-3A2,2,0,0,1,449.5,170.37Zm10.25-8.25a2,2,0,0,1,3.47-2l3,5.19a2,2,0,0,1-3.47,2Zm41.71,38.25a2,2,0,0,1-2.73.73l-5.2-3a2,2,0,1,1,2-3.46l5.2,3A2,2,0,0,1,501.46,200.37Zm4-15a2,2,0,0,1-2,2h-6a2,2,0,1,1,0-4h6A2,2,0,0,1,505.48,185.37Z" transform="translate(-443.48 -155.37)"/></svg>